<?xml version="1.0" encoding="utf-8"?>
<!-- Generator: Adobe Illustrator 17.0.0, SVG Export Plug-In . SVG Version: 6.00 Build 0)  -->
<!DOCTYPE svg PUBLIC "-//W3C//DTD SVG 1.1//EN" "http://www.w3.org/Graphics/SVG/1.1/DTD/svg11.dtd">
<svg version="1.1"
	 id="svg2" xmlns:svg="http://www.w3.org/2000/svg" xmlns:inkscape="http://www.inkscape.org/namespaces/inkscape" xmlns:sodipodi="http://sodipodi.sourceforge.net/DTD/sodipodi-0.dtd" xmlns:rdf="http://www.w3.org/1999/02/22-rdf-syntax-ns#" xmlns:dc="http://purl.org/dc/elements/1.1/" xmlns:cc="http://creativecommons.org/ns#" sodipodi:version="0.32" inkscape:output_extension="org.inkscape.output.svg.inkscape" inkscape:version="0.47 r22583" sodipodi:docname="rubberduck.svg"
	 xmlns="http://www.w3.org/2000/svg" xmlns:xlink="http://www.w3.org/1999/xlink" x="0px" y="0px" width="711.118px"
	 height="593.881px" viewBox="32.977 187.111 711.118 593.881" enable-background="new 32.977 187.111 711.118 593.881"
	 xml:space="preserve">
<defs>
	
	
		<inkscape:perspective  sodipodi:type="inkscape:persp3d" inkscape:vp_x="0 : 526.18109 : 1" inkscape:vp_z="744.09448 : 526.18109 : 1" inkscape:vp_y="0 : 1000 : 0" id="perspective10" inkscape:persp3d-origin="372.04724 : 350.78739 : 1">
		</inkscape:perspective>
</defs>
<sodipodi:namedview  borderopacity="1.0" bordercolor="#666666" guidetolerance="10" gridtolerance="10000" objecttolerance="10" pagecolor="#ffffff" inkscape:cy="602.33206" showgrid="false" inkscape:cx="477.27097" inkscape:zoom="0.49497475" id="base" inkscape:window-maximized="0" inkscape:window-y="17" inkscape:window-x="13" inkscape:window-height="679" inkscape:window-width="875" inkscape:current-layer="layer1" inkscape:document-units="px" inkscape:pageshadow="2" inkscape:pageopacity="0.0">
	</sodipodi:namedview>
<g id="g2482" transform="translate(119.198,-38.385796)">
	<path id="path3157" sodipodi:nodetypes="czssscsss" fill="#005544" fill-opacity="0.9373" d="M508.313,383.912
		c-8.468,28.012-11.62,42.27-35.117,63.828c-10.526,9.658-32.173,31.427-78.157,15.964c-36.884-14.217-79.183-23.47-124.441-26.043
		C120.224,429.113-6.123,497.562-11.405,590.464S101.086,765.725,251.46,774.275c147.957,8.412,256.417-73.971,285.784-144.033
		c28.846-68.819,27.901-130.689,28.945-157.16C568.864,405.48,511.108,374.666,508.313,383.912z"/>
	
		<linearGradient id="path3188_1_" gradientUnits="userSpaceOnUse" x1="2516.9656" y1="410.6267" x2="2034.1085" y2="566.3411" gradientTransform="matrix(-0.9984 -0.0568 0.0568 -0.9984 2555.0254 1226.171)">
		<stop  offset="0" style="stop-color:#005544"/>
		<stop  offset="1" style="stop-color:#005544;stop-opacity:0"/>
	</linearGradient>
	<path id="path3188" sodipodi:nodetypes="cssssz" fill="url(#path3188_1_)" d="M532.374,627.569
		c33.813-77.597-26.867-93.397-79.579-60.329c-33.576,21.064-151.587,17.146-196.845,14.573
		c-150.374-8.549-213.344-98.28-244.816-48.269c-76.679,121.849,86.589,228.162,236.964,236.712
		C396.055,778.669,498.763,704.702,532.374,627.569L532.374,627.569z"/>
	
		<linearGradient id="path3198_1_" gradientUnits="userSpaceOnUse" x1="2060.2329" y1="461.3325" x2="2424.5186" y2="589.9039" gradientTransform="matrix(-0.9984 -0.0568 0.0568 -0.9984 2559.061 1230.6931)">
		<stop  offset="0" style="stop-color:#008066"/>
		<stop  offset="1" style="stop-color:#008066;stop-opacity:0"/>
	</linearGradient>
	<path id="path3198" sodipodi:nodetypes="czssscsss" fill="url(#path3198_1_)" d="M563.012,478.625
		c2.675-67.602-49.294-99.518-52.089-90.272c-8.468,28.012-11.62,42.27-35.117,63.828c-10.526,9.658-32.173,31.427-78.157,15.964
		c-36.884-14.217-79.183-23.47-124.441-26.043c-150.374-8.549-276.721,59.9-282.003,152.802s112.897,168.13,263.271,176.679
		c147.957,8.412,249.679-75.257,277.145-143.093C559.594,559.4,561.968,505.096,563.012,478.625L563.012,478.625z"/>
	<path id="path3159" sodipodi:nodetypes="czscssz" fill="#008066" fill-opacity="0.9373" d="M170.808,632.312
		c-28.45,34.856-38.274,85.399,13.075,122.368c54.329,39.115,260.602,21.97,303.847-84.318c7.223-17.753,4.961-36.921,4.961-36.921
		s-32.513,18.184-80.52,6.869c-48.007-11.315-34.831-11.388-78.574-27.361C290.262,597.125,198.532,598.345,170.808,632.312
		L170.808,632.312z"/>
	
		<linearGradient id="path3242_1_" gradientUnits="userSpaceOnUse" x1="2405.9976" y1="411.2209" x2="2303.1404" y2="401.9672" gradientTransform="matrix(-0.9984 -0.0568 0.0568 -0.9984 2556.2246 1230.2457)">
		<stop  offset="0" style="stop-color:#005544"/>
		<stop  offset="1" style="stop-color:#005544;stop-opacity:0"/>
	</linearGradient>
	<path id="path3242" sodipodi:nodetypes="csszssc" fill="url(#path3242_1_)" d="M160.95,730.196
		c-24.423-48.608-0.07-77.162,15.174-90.714c19.248-17.111,65.851-30.574,114.135-19.267
		c56.483,13.227,115.423,101.838,114.827,119.568c-0.545,16.214-52.805,22.754-73.097,27.323c-20.292,4.57-60.471,6.578-87.57,5.038
		C217.319,770.604,184.677,765.886,160.95,730.196L160.95,730.196z"/>
	<g id="g2457">
		<path id="path3186" sodipodi:nodetypes="cscsssszc" fill="#165044" d="M526.572,396.225c6.853,6.445,16.921,22.715,15.396,31.735
			s-23.561,31.796-18.894,29.785c5.662-2.44,17.45-18.279,21.822-18.995c6.275-1.028,7.226,1.928,9.013,6.077
			c2.279,5.289,9.6,40.258,9.6,40.258s-0.457-23.78-3.995-40.951c-4.129-20.037-22.627-51.37-47.828-61.909L526.572,396.225z"/>
		
			<linearGradient id="path3232_1_" gradientUnits="userSpaceOnUse" x1="2360.439" y1="472.6458" x2="2101.8674" y2="451.5107" gradientTransform="matrix(-0.9984 -0.0568 0.0568 -0.9984 2556.4517 1226.2522)">
			<stop  offset="0" style="stop-color:#00AA88"/>
			<stop  offset="1" style="stop-color:#00AA88;stop-opacity:0"/>
		</linearGradient>
		<path id="path3232" sodipodi:nodetypes="cssscsssc" fill="url(#path3232_1_)" d="M167.712,636.429
			c27.642-15.375,39.092-18.34,56.29-21.125c29.099-4.711,64.266-2.832,92.211,5.733c27.6,8.46,76.38,29.087,103.155,36.332
			c26.775,7.246,42.929-5.256,42.929-5.256s28.93-15.237,6.979-9.497c-25.994,6.798-59.346,0.449-86.099-8.248
			c-22.345-7.264-39.564-19.594-73.552-25.818C298.383,606.492,209.166,584.658,167.712,636.429L167.712,636.429z"/>
		
			<linearGradient id="path3252_1_" gradientUnits="userSpaceOnUse" x1="2075.0742" y1="695.5311" x2="2193.6458" y2="565.5311" gradientTransform="matrix(-0.9984 -0.0568 0.0568 -0.9984 2556.4517 1226.2522)">
			<stop  offset="0" style="stop-color:#005544"/>
			<stop  offset="1" style="stop-color:#005544;stop-opacity:0"/>
		</linearGradient>
		<path id="path3252" sodipodi:nodetypes="cscssssscc" fill="url(#path3252_1_)" d="M418.847,472.562c0,0,28.485,2.335,36.799,7.1
			c8.676,4.973,6.279,16.059-22.4,41.653c-0.754,0.673-10.47,7.99,9.027,4.806c25.417-4.151,44.856-33.937,63.066-52.219
			c14.258-14.314,30.715-36.888,32.83-48.93c2.225-12.663-24.91-40.05-24.91-40.05s-4.574,7.676-5.762,13.266
			c-1.953,9.19-12.23,51.532-63.488,72.227L418.847,472.562z"/>
		
			<linearGradient id="path3262_1_" gradientUnits="userSpaceOnUse" x1="2106.656" y1="437.9295" x2="2169.2854" y2="394.493" gradientTransform="matrix(-0.9984 -0.0568 0.0568 -0.9984 2556.4517 1226.2522)">
			<stop  offset="0" style="stop-color:#005544"/>
			<stop  offset="1" style="stop-color:#005544;stop-opacity:0"/>
		</linearGradient>
		<path id="path3262" fill="url(#path3262_1_)" d="M469.757,659.325c-9.044,8.071-40.584,9.14-40.584,9.14
			s19.076,16.824,18.022,35.366c-1.054,18.542-30.553,34.035-30.553,34.035s28.153-17.001,40.05-24.91
			c11.897-7.909,27.781-35.623,32.012-59.708C490.292,650.476,478.801,651.253,469.757,659.325z"/>
		<path id="path3280" fill="#008066" d="M550.343,538.7c-1.009-0.057-20.319-16.332-29.281-18.865
			c-8.962-2.533-48.709,55.914-84.237,57.941s-134.191-6.617-122.089-5.929c12.102,0.688,90.332-4.982,109.666-6.918
			c19.334-1.936,90.598-80.851,95.985-86.615c5.387-5.764,14.291-2.223,14.291-2.223S555.973,475.277,550.343,538.7L550.343,538.7z"
			/>
		
			<path id="path2385" sodipodi:type="arc" sodipodi:cx="362.85715" sodipodi:ry="128.57143" sodipodi:rx="125.71429" sodipodi:cy="458.07648" fill="#005544" fill-opacity="0.936" d="
			M37.978,401.543c4.031-70.894,63.491-125.169,132.81-121.228c69.318,3.941,122.244,64.606,118.214,135.5
			c-4.031,70.894-63.491,125.169-132.81,121.228S33.948,472.437,37.978,401.543L37.978,401.543z"/>
		
			<path id="path3292" sodipodi:type="arc" sodipodi:cx="362.85715" sodipodi:ry="128.57143" sodipodi:rx="125.71429" sodipodi:cy="458.07648" fill="#005544" fill-opacity="0.936" d="
			M43.716,401.297c3.941-69.318,61.094-122.444,127.655-118.66s117.325,63.045,113.384,132.364
			c-3.941,69.318-61.094,122.444-127.655,118.66C90.539,529.877,39.775,470.615,43.716,401.297L43.716,401.297z"/>
		
			<linearGradient id="path3330_1_" gradientUnits="userSpaceOnUse" x1="2686.8403" y1="608.3156" x2="2896.7974" y2="794.3025" gradientTransform="matrix(-0.8744 -0.0497 0.0514 -0.9049 2542.6025 1162.9686)">
			<stop  offset="0" style="stop-color:#00AA88"/>
			<stop  offset="1" style="stop-color:#00AA88;stop-opacity:0"/>
		</linearGradient>
		
			<path id="path3330" sodipodi:type="arc" sodipodi:cx="362.85715" sodipodi:ry="128.57143" sodipodi:rx="125.71429" sodipodi:cy="458.07648" fill="url(#path3330_1_)" d="
			M47.207,403.499c3.653-64.255,55.83-113.546,116.541-110.095s106.965,58.339,103.312,122.594
			c-3.653,64.255-55.83,113.546-116.541,110.095S43.554,467.754,47.207,403.499L47.207,403.499z"/>
		
			<path id="path3410" sodipodi:type="arc" sodipodi:cx="362.85715" sodipodi:ry="128.57143" sodipodi:rx="125.71429" sodipodi:cy="458.07648" fill="#005544" fill-opacity="0.936" d="
			M49.696,409.364c3.672-64.592,58.692-113.995,122.89-110.345s113.264,58.971,109.592,123.563s-58.692,113.995-122.89,110.345
			S46.024,473.956,49.696,409.364L49.696,409.364z"/>
		
			<linearGradient id="path3428_1_" gradientUnits="userSpaceOnUse" x1="2128.4526" y1="706.4829" x2="2143.4939" y2="523.6833" gradientTransform="matrix(-1.1379 -0.0647 0.0634 -1.1157 2582.3994 1284.8931)">
			<stop  offset="0" style="stop-color:#008066"/>
			<stop  offset="1" style="stop-color:#008066;stop-opacity:0.01"/>
		</linearGradient>
		
			<path id="path3428" sodipodi:type="arc" sodipodi:cx="315" sodipodi:ry="46.42857" sodipodi:rx="49.285713" sodipodi:cy="391.64789" opacity="0.2981" fill="url(#path3428_1_)" enable-background="new    " d="
			M206.461,319.803c30.973,1.761,54.762,26.381,53.136,54.99c-1.627,28.609-28.053,50.375-59.026,48.614
			s-54.762-26.381-53.136-54.99S175.488,318.043,206.461,319.803z"/>
		<path id="path3298" sodipodi:nodetypes="csssz" fill="#AA8800" d="M92.216,482.22c12.986-8.276,17.975-23.205,17.962-25.543
			c-0.162-29.671-148.505-35.065-164.887-31.93c-6.565,1.256,8.995,41.51,35.834,55.509
			C10.575,495.618,79.724,490.181,92.216,482.22L92.216,482.22z"/>
		<g id="g3446" transform="translate(-139.40105,-18.182746)">
			<path id="path3296" sodipodi:nodetypes="czssssc" fill="#FFCC00" d="M250.378,471.002c-30.573,19.132-39.84,22.024-75.839,25.216
				c-53.734,4.764-90.362-23.156-91.377-53.845c-0.391-11.818,17.115,0.973,47.391-3.029c30.276-4.002,35.122-13.743,45.674-23.159
				c10.551-9.416,26.481-3.129,41.119,6.63C232.391,432.846,243.976,457.76,250.378,471.002L250.378,471.002z"/>
		</g>
		<g id="g3312" transform="translate(20.497423,-0.4133152)">
			
				<path id="path3294" sodipodi:type="arc" sodipodi:cx="44.285713" sodipodi:ry="58.57143" sodipodi:rx="52.857143" sodipodi:cy="248.07646" fill="#FFFFFF" d="
				M106.152,343.625c21.268,1.209,37.384,21.985,35.996,46.404c-1.388,24.419-19.755,43.234-41.023,42.025
				c-21.268-1.209-37.384-21.985-35.996-46.404C66.517,361.231,84.884,342.416,106.152,343.625z"/>
			
				<path id="path3300" sodipodi:type="arc" sodipodi:cx="377.85715" sodipodi:ry="25.714285" sodipodi:rx="20.714285" sodipodi:cy="419.50504" d="
				M71.936,391.761c0.806-14.179,10.719-25.146,22.14-24.497s20.027,12.67,19.221,26.849c-0.806,14.179-10.719,25.146-22.14,24.497
				C79.735,417.96,71.13,405.939,71.936,391.761L71.936,391.761z"/>
			
				<path id="path3304" sodipodi:type="arc" sodipodi:cx="363.92856" sodipodi:ry="12.5" sodipodi:rx="11.785714" sodipodi:cy="409.86218" fill="#FFFFFF" d="
				M107.78,371.62c6.499,0.369,11.449,6.256,11.057,13.149c-0.392,6.892-5.978,12.18-12.476,11.811
				c-6.499-0.369-11.449-6.256-11.057-13.149C95.695,376.538,101.281,371.25,107.78,371.62z"/>
		</g>
		<g id="g3317" transform="translate(6.6142033,2.0609153)">
			
				<path id="path3306" sodipodi:type="arc" sodipodi:cx="457.5" sodipodi:ry="28.928572" sodipodi:rx="14.642857" sodipodi:open="true" sodipodi:start="0" sodipodi:end="6.2686269" sodipodi:cy="390.57648" fill="#FFFFFF" d="
				M37.393,356.28c3.057-15.513,11.827-26.774,19.691-25.284c7.946,1.505,11.976,15.451,9.003,31.148
				c-2.974,15.698-11.826,27.203-19.771,25.698c-7.946-1.505-11.976-15.451-9.003-31.148"/>
			
				<path id="path3308" sodipodi:type="arc" sodipodi:cx="377.85715" sodipodi:ry="25.714285" sodipodi:rx="20.714285" sodipodi:cy="419.50504" d="
				M38.446,359.738c0.493-8.665,5.043-15.453,10.163-15.162c5.12,0.291,8.871,7.551,8.379,16.216
				c-0.493,8.665-5.043,15.453-10.163,15.162C41.705,375.663,37.953,368.403,38.446,359.738L38.446,359.738z"/>
			
				<path id="path3310" sodipodi:type="arc" sodipodi:cx="461.42856" sodipodi:ry="8.2142859" sodipodi:rx="7.1428571" sodipodi:cy="379.86218" fill="#FFFFFF" d="
				M54.192,347.04c3.939,0.224,6.923,4.077,6.665,8.606c-0.258,4.529-3.659,8.02-7.598,7.796s-6.923-4.077-6.665-8.606
				C46.852,350.307,50.253,346.816,54.192,347.04z"/>
		</g>
		<g id="g3464" transform="matrix(0.9460822,0,0,0.8719834,-104.71087,43.584381)">
			
				<linearGradient id="path3466_1_" gradientUnits="userSpaceOnUse" x1="3185.6489" y1="695.4176" x2="3093.5398" y2="710.9815" gradientTransform="matrix(-0.9446 -0.0583 0.0456 -0.8706 3042.5203 1249.6682)">
				<stop  offset="0" style="stop-color:#FFE680"/>
				<stop  offset="1" style="stop-color:#FFE680;stop-opacity:0"/>
			</linearGradient>
			<path id="path3466" sodipodi:nodetypes="czssssc" fill="url(#path3466_1_)" d="M222.012,466.727
				c-30.481,18.99-39.732,21.839-75.708,24.858c-53.699,4.507-90.442-23.598-91.593-54.3c-0.443-11.823,17.115,1.056,47.366-2.802
				c30.251-3.857,35.053-13.577,45.56-22.945s26.46-3.002,41.138,6.83C203.861,428.474,215.553,453.45,222.012,466.727
				L222.012,466.727z"/>
		</g>
	</g>
</g>
</svg>
