<?xml version="1.0" encoding="utf-8"?>
<!-- Generator: Adobe Illustrator 17.0.0, SVG Export Plug-In . SVG Version: 6.00 Build 0)  -->
<!DOCTYPE svg PUBLIC "-//W3C//DTD SVG 1.1//EN" "http://www.w3.org/Graphics/SVG/1.1/DTD/svg11.dtd">
<svg version="1.1"
	 id="svg2" xmlns:svg="http://www.w3.org/2000/svg" xmlns:inkscape="http://www.inkscape.org/namespaces/inkscape" xmlns:sodipodi="http://sodipodi.sourceforge.net/DTD/sodipodi-0.dtd" xmlns:rdf="http://www.w3.org/1999/02/22-rdf-syntax-ns#" xmlns:dc="http://purl.org/dc/elements/1.1/" xmlns:cc="http://creativecommons.org/ns#" sodipodi:version="0.32" inkscape:output_extension="org.inkscape.output.svg.inkscape" inkscape:version="0.47 r22583" sodipodi:docname="rubberduck.svg"
	 xmlns="http://www.w3.org/2000/svg" xmlns:xlink="http://www.w3.org/1999/xlink" x="0px" y="0px" width="711.118px"
	 height="593.881px" viewBox="0 0 711.118 593.881" enable-background="new 0 0 711.118 593.881" xml:space="preserve">
<defs>
	
	
		<inkscape:perspective  sodipodi:type="inkscape:persp3d" inkscape:vp_x="0 : 526.18109 : 1" inkscape:vp_z="744.09448 : 526.18109 : 1" inkscape:vp_y="0 : 1000 : 0" id="perspective10" inkscape:persp3d-origin="372.04724 : 350.78739 : 1">
		</inkscape:perspective>
</defs>
<sodipodi:namedview  borderopacity="1.0" bordercolor="#666666" guidetolerance="10" gridtolerance="10000" objecttolerance="10" pagecolor="#ffffff" inkscape:cy="602.33206" showgrid="false" inkscape:cx="477.27097" inkscape:zoom="0.49497475" id="base" inkscape:window-maximized="0" inkscape:window-y="17" inkscape:window-x="13" inkscape:window-height="679" inkscape:window-width="875" inkscape:current-layer="layer1" inkscape:document-units="px" inkscape:pageshadow="2" inkscape:pageopacity="0.0">
	</sodipodi:namedview>
<g id="g2482" transform="translate(119.198,-38.385796)">
	<path id="path3157" sodipodi:nodetypes="czssscsss" fill="#005544" fill-opacity="0.9373" d="M-66.155,283.082
		c1.044,26.471,0.099,88.341,28.945,157.16c29.367,70.062,137.827,152.445,285.784,144.033
		c150.374-8.55,268.147-90.909,262.865-183.811c-5.282-92.902-131.629-161.351-282.003-152.803
		c-45.258,2.573-87.557,11.826-124.441,26.043c-45.984,15.463-67.631-6.306-78.157-15.964
		C3.341,236.182,0.189,221.924-8.279,193.912C-11.074,184.666-68.83,215.48-66.155,283.082z"/>
	
		<linearGradient id="path3188_1_" gradientUnits="userSpaceOnUse" x1="2186.0178" y1="862.8534" x2="1703.1608" y2="707.139" gradientTransform="matrix(0.9984 -0.0568 0.0568 0.9984 -1796.9316 -253.9757)">
		<stop  offset="0" style="stop-color:#005544"/>
		<stop  offset="1" style="stop-color:#005544;stop-opacity:0"/>
	</linearGradient>
	<path id="path3188" sodipodi:nodetypes="cssssz" fill="url(#path3188_1_)" d="M-32.34,437.569
		c33.611,77.133,136.319,151.1,284.276,142.687c150.375-8.55,313.643-114.863,236.964-236.712
		c-31.472-50.011-94.442,39.72-244.816,48.269c-45.258,2.573-163.269,6.491-196.845-14.573
		C-5.473,344.172-66.153,359.972-32.34,437.569L-32.34,437.569z"/>
	
		<linearGradient id="path3198_1_" gradientUnits="userSpaceOnUse" x1="1729.3427" y1="812.1342" x2="2093.6282" y2="683.5627" gradientTransform="matrix(0.9984 -0.0568 0.0568 0.9984 -1800.9673 -249.4536)">
		<stop  offset="0" style="stop-color:#008066"/>
		<stop  offset="1" style="stop-color:#008066;stop-opacity:0"/>
	</linearGradient>
	<path id="path3198" sodipodi:nodetypes="czssscsss" fill="url(#path3198_1_)" d="M-62.978,288.625
		c1.044,26.471,3.418,80.775,31.391,149.865c27.466,67.836,129.188,151.505,277.145,143.093
		c150.374-8.549,268.553-83.777,263.271-176.679S377.2,243.553,226.826,252.102c-45.258,2.573-87.557,11.826-124.441,26.043
		c-45.984,15.463-67.631-6.306-78.157-15.964c-23.497-21.558-26.649-35.816-35.117-63.828
		C-13.684,189.107-65.653,221.023-62.978,288.625L-62.978,288.625z"/>
	<path id="path3159" sodipodi:nodetypes="czscssz" fill="#008066" fill-opacity="0.9373" d="M329.226,442.312
		c-27.724-33.967-119.454-35.187-162.789-19.363c-43.743,15.973-30.567,16.046-78.574,27.361s-80.52-6.869-80.52-6.869
		s-2.262,19.168,4.961,36.921C55.549,586.65,261.822,603.795,316.151,564.68C367.5,527.711,357.676,477.168,329.226,442.312
		L329.226,442.312z"/>
	
		<linearGradient id="path3242_1_" gradientUnits="userSpaceOnUse" x1="2075.0876" y1="862.2579" x2="1972.2305" y2="871.5116" gradientTransform="matrix(0.9984 -0.0568 0.0568 0.9984 -1798.1309 -249.901)">
		<stop  offset="0" style="stop-color:#005544"/>
		<stop  offset="1" style="stop-color:#005544;stop-opacity:0"/>
	</linearGradient>
	<path id="path3242" sodipodi:nodetypes="csszssc" fill="url(#path3242_1_)" d="M339.084,540.196
		c-23.727,35.69-56.369,40.408-83.469,41.948c-27.099,1.54-67.278-0.468-87.57-5.038c-20.292-4.569-72.552-11.109-73.097-27.323
		c-0.596-17.73,58.344-106.341,114.827-119.568c48.284-11.307,94.887,2.156,114.135,19.267
		C339.154,463.034,363.507,491.588,339.084,540.196L339.084,540.196z"/>
	<g id="g2457">
		<path id="path3186" sodipodi:nodetypes="cscsssszc" fill="#165044" d="M-11.652,192.225
			c-25.201,10.539-43.699,41.872-47.828,61.909c-3.538,17.171-3.995,40.951-3.995,40.951s7.321-34.969,9.6-40.258
			c1.787-4.149,2.738-7.105,9.013-6.077c4.372,0.716,16.16,16.555,21.822,18.995c4.667,2.011-17.369-20.765-18.894-29.785
			s8.543-25.29,15.396-31.735L-11.652,192.225z"/>
		
			<linearGradient id="path3232_1_" gradientUnits="userSpaceOnUse" x1="2029.5286" y1="800.8357" x2="1770.957" y2="821.9708" gradientTransform="matrix(0.9984 -0.0568 0.0568 0.9984 -1798.3579 -253.8946)">
			<stop  offset="0" style="stop-color:#00AA88"/>
			<stop  offset="1" style="stop-color:#00AA88;stop-opacity:0"/>
		</linearGradient>
		<path id="path3232" sodipodi:nodetypes="cssscsssc" fill="url(#path3232_1_)" d="M332.322,446.429
			c-41.454-51.771-130.671-29.937-141.913-27.879c-33.988,6.224-51.207,18.554-73.552,25.818
			c-26.753,8.697-60.105,15.046-86.099,8.248c-21.951-5.74,6.979,9.497,6.979,9.497s16.154,12.502,42.929,5.256
			c26.775-7.245,75.555-27.872,103.155-36.332c27.945-8.565,63.112-10.444,92.211-5.733
			C293.23,428.089,304.68,431.054,332.322,446.429L332.322,446.429z"/>
		
			<linearGradient id="path3252_1_" gradientUnits="userSpaceOnUse" x1="1744.1074" y1="577.9015" x2="1862.679" y2="707.9014" gradientTransform="matrix(0.9984 -0.0568 0.0568 0.9984 -1798.3579 -253.8946)">
			<stop  offset="0" style="stop-color:#005544"/>
			<stop  offset="1" style="stop-color:#005544;stop-opacity:0"/>
		</linearGradient>
		<path id="path3252" sodipodi:nodetypes="cscssssscc" fill="url(#path3252_1_)" d="M56.025,280.415
			C4.767,259.72-5.51,217.378-7.463,208.188c-1.188-5.59-5.762-13.266-5.762-13.266s-27.135,27.387-24.91,40.05
			c2.115,12.042,18.572,34.616,32.83,48.93c18.21,18.282,37.649,48.068,63.066,52.219c19.497,3.184,9.781-4.133,9.027-4.806
			c-28.679-25.594-31.076-36.68-22.4-41.653c8.314-4.765,36.799-7.1,36.799-7.1L56.025,280.415z"/>
		
			<linearGradient id="path3262_1_" gradientUnits="userSpaceOnUse" x1="1775.6914" y1="835.5258" x2="1838.3208" y2="878.9623" gradientTransform="matrix(0.9984 -0.0568 0.0568 0.9984 -1798.3579 -253.8946)">
			<stop  offset="0" style="stop-color:#005544"/>
			<stop  offset="1" style="stop-color:#005544;stop-opacity:0"/>
		</linearGradient>
		<path id="path3262" fill="url(#path3262_1_)" d="M11.33,463.248c4.231,24.085,20.115,51.799,32.012,59.708
			c11.897,7.909,40.05,24.91,40.05,24.91s-29.499-15.493-30.553-34.035c-1.054-18.542,18.022-35.366,18.022-35.366
			s-31.54-1.069-40.584-9.14C21.233,461.253,9.742,460.476,11.33,463.248z"/>
		<path id="path3280" fill="#008066" d="M-50.309,348.7c-5.63-63.423,15.665-62.609,15.665-62.609s8.904-3.541,14.291,2.223
			c5.387,5.764,76.651,84.679,95.985,86.615c19.334,1.936,97.564,7.606,109.666,6.918s-86.561,7.956-122.089,5.929
			s-75.275-60.474-84.237-57.941C-29.99,332.368-49.3,348.643-50.309,348.7L-50.309,348.7z"/>
		
			<path id="path2385" sodipodi:type="arc" sodipodi:cx="362.85715" sodipodi:ry="128.57143" sodipodi:rx="125.71429" sodipodi:cy="458.07648" fill="#005544" fill-opacity="0.936" d="
			M462.056,211.543c4.03,70.894-48.895,131.559-118.214,135.5s-128.779-50.334-132.81-121.228
			c-4.03-70.894,48.896-131.559,118.214-135.5C398.565,86.374,458.025,140.649,462.056,211.543L462.056,211.543z"/>
		
			<path id="path3292" sodipodi:type="arc" sodipodi:cx="362.85715" sodipodi:ry="128.57143" sodipodi:rx="125.71429" sodipodi:cy="458.07648" fill="#005544" fill-opacity="0.936" d="
			M456.318,211.297c3.941,69.318-46.823,128.58-113.384,132.364c-66.561,3.784-123.714-49.342-127.655-118.66
			c-3.941-69.319,46.823-128.58,113.384-132.364S452.377,141.979,456.318,211.297L456.318,211.297z"/>
		
			<linearGradient id="path3330_1_" gradientUnits="userSpaceOnUse" x1="2366.1404" y1="658.5967" x2="2576.0974" y2="472.6098" gradientTransform="matrix(0.8744 -0.0497 0.0514 0.9049 -1827.2845 -189.4161)">
			<stop  offset="0" style="stop-color:#00AA88"/>
			<stop  offset="1" style="stop-color:#00AA88;stop-opacity:0"/>
		</linearGradient>
		
			<path id="path3330" sodipodi:type="arc" sodipodi:cx="362.85715" sodipodi:ry="128.57143" sodipodi:rx="125.71429" sodipodi:cy="458.07648" fill="url(#path3330_1_)" d="
			M452.827,213.499c3.653,64.255-42.601,119.143-103.312,122.594s-112.888-45.84-116.541-110.095s42.601-119.143,103.312-122.594
			S449.174,149.244,452.827,213.499L452.827,213.499z"/>
		
			<path id="path3410" sodipodi:type="arc" sodipodi:cx="362.85715" sodipodi:ry="128.57143" sodipodi:rx="125.71429" sodipodi:cy="458.07648" fill="#005544" fill-opacity="0.936" d="
			M450.338,219.364c3.672,64.592-45.394,119.913-109.592,123.563s-119.218-45.753-122.89-110.345s45.394-119.913,109.592-123.563
			S446.666,154.772,450.338,219.364L450.338,219.364z"/>
		
			<linearGradient id="path3428_1_" gradientUnits="userSpaceOnUse" x1="1788.6079" y1="573.4731" x2="1803.6492" y2="756.2728" gradientTransform="matrix(1.1379 -0.0647 0.0634 1.1157 -1776.8842 -355.131)">
			<stop  offset="0" style="stop-color:#008066"/>
			<stop  offset="1" style="stop-color:#008066;stop-opacity:0.01"/>
		</linearGradient>
		
			<path id="path3428" sodipodi:type="arc" sodipodi:cx="315" sodipodi:ry="46.42857" sodipodi:rx="49.285713" sodipodi:cy="391.64789" opacity="0.2981" fill="url(#path3428_1_)" enable-background="new    " d="
			M352.599,178.417c1.626,28.609-22.163,53.229-53.136,54.99s-57.399-20.005-59.026-48.614
			c-1.626-28.609,22.163-53.229,53.136-54.99C324.546,128.043,350.973,149.808,352.599,178.417z"/>
		<path id="path3298" sodipodi:nodetypes="csssz" fill="#AA8800" d="M407.818,292.22c12.492,7.961,81.641,13.398,111.091-1.964
			c26.839-13.999,42.399-54.253,35.834-55.509c-16.382-3.135-164.725,2.259-164.887,31.93
			C389.843,269.015,394.832,283.944,407.818,292.22L407.818,292.22z"/>
		<g id="g3446" transform="translate(-139.40105,-18.182746)">
			<path id="path3296" sodipodi:nodetypes="czssssc" fill="#FFCC00" d="M528.458,281.002c6.402-13.242,17.987-38.156,33.032-48.187
				c14.638-9.759,30.568-16.046,41.119-6.63c10.552,9.416,15.398,19.157,45.674,23.159c30.276,4.002,47.782-8.789,47.391,3.029
				c-1.015,30.689-37.643,58.609-91.377,53.845C568.298,303.026,559.031,300.134,528.458,281.002L528.458,281.002z"/>
		</g>
		<g id="g3312" transform="translate(20.497423,-0.4133152)">
			
				<path id="path3294" sodipodi:type="arc" sodipodi:cx="44.285713" sodipodi:ry="58.57143" sodipodi:rx="52.857143" sodipodi:cy="248.07646" fill="#FFFFFF" d="
				M393.91,195.65c1.388,24.419-14.728,45.195-35.996,46.404c-21.268,1.209-39.635-17.606-41.023-42.025
				s14.728-45.195,35.996-46.404S392.522,171.231,393.91,195.65z"/>
			
				<path id="path3300" sodipodi:type="arc" sodipodi:cx="377.85715" sodipodi:ry="25.714285" sodipodi:rx="20.714285" sodipodi:cy="419.50504" d="
				M387.103,201.761c0.806,14.178-7.799,26.199-19.221,26.849c-11.421,0.649-21.334-10.318-22.14-24.497s7.8-26.2,19.221-26.849
				C376.384,176.615,386.297,187.582,387.103,201.761L387.103,201.761z"/>
			
				<path id="path3304" sodipodi:type="arc" sodipodi:cx="363.92856" sodipodi:ry="12.5" sodipodi:rx="11.785714" sodipodi:cy="409.86218" fill="#FFFFFF" d="
				M363.735,193.431c0.392,6.893-4.558,12.78-11.057,13.149c-6.498,0.369-12.084-4.919-12.476-11.811
				c-0.392-6.893,4.558-12.78,11.057-13.149C357.758,181.25,363.344,186.538,363.735,193.431z"/>
		</g>
		<g id="g3317" transform="translate(6.6142033,2.0609153)">
			
				<path id="path3306" sodipodi:type="arc" sodipodi:cx="457.5" sodipodi:ry="28.928572" sodipodi:rx="14.642857" sodipodi:open="true" sodipodi:start="0" sodipodi:end="6.2686269" sodipodi:cy="390.57648" fill="#FFFFFF" d="
				M449.492,166.694c2.973,15.697-1.057,29.643-9.003,31.148c-7.945,1.505-16.797-10-19.771-25.698
				c-2.973-15.697,1.057-29.643,9.003-31.148c7.864-1.49,16.634,9.771,19.691,25.284"/>
			
				<path id="path3308" sodipodi:type="arc" sodipodi:cx="377.85715" sodipodi:ry="25.714285" sodipodi:rx="20.714285" sodipodi:cy="419.50504" d="
				M448.359,169.738c0.493,8.665-3.259,15.925-8.379,16.216s-9.67-6.497-10.163-15.162c-0.492-8.665,3.259-15.925,8.379-16.216
				C443.316,154.285,447.866,161.073,448.359,169.738L448.359,169.738z"/>
			
				<path id="path3310" sodipodi:type="arc" sodipodi:cx="461.42856" sodipodi:ry="8.2142859" sodipodi:rx="7.1428571" sodipodi:cy="379.86218" fill="#FFFFFF" d="
				M440.211,164.836c0.258,4.529-2.726,8.382-6.665,8.606c-3.939,0.224-7.34-3.267-7.598-7.796s2.726-8.382,6.665-8.606
				S439.953,160.307,440.211,164.836z"/>
		</g>
		<g id="g3464" transform="matrix(0.9460822,0,0,0.8719834,-104.71087,43.584381)">
			
				<linearGradient id="path3466_1_" gradientUnits="userSpaceOnUse" x1="3137.2559" y1="588.9136" x2="3045.1467" y2="573.3497" gradientTransform="matrix(0.8937 -0.0552 0.0398 0.7591 -2142.1301 -34.4553)">
				<stop  offset="0" style="stop-color:#FFE680"/>
				<stop  offset="1" style="stop-color:#FFE680;stop-opacity:0"/>
			</linearGradient>
			<path id="path3466" sodipodi:nodetypes="czssssc" fill="url(#path3466_1_)" d="M527.876,248.833
				c6.459-13.277,18.151-38.253,33.237-48.359c14.678-9.832,30.631-16.198,41.138-6.83c10.507,9.368,15.309,19.088,45.56,22.945
				c30.251,3.858,47.809-9.021,47.366,2.802c-1.151,30.702-37.894,58.807-91.593,54.3
				C567.608,270.672,558.357,267.823,527.876,248.833L527.876,248.833z"/>
		</g>
	</g>
</g>
</svg>
