<?xml version="1.0" encoding="utf-8"?>  <!DOCTYPE svg PUBLIC "-//W3C//DTD SVG 1.1//EN" "http://www.w3.org/Graphics/SVG/1.1/DTD/svg11.dtd"> <svg width="512" height="512" viewBox="0 0 512 512" xmlns="http://www.w3.org/2000/svg" xmlns:xlink="http://www.w3.org/1999/xlink" fill="#000000"><path d="M 480.00,128.00c 17.673,0.00, 32.00-14.327, 32.00-32.00L 512.00,32.00 l-64.00,0.00 L 448.00,0.00 L 32.00,0.00 C 14.40,0.00,0.00,14.399,0.00,32.00l0.00,448.00 c0.00,17.60, 14.398,32.00, 32.00,32.00l 416.00,0.00 L 448.00,384.00 l 32.00,0.00 c 17.673,0.00, 32.00-14.327, 32.00-32.00l0.00-64.00 l-64.00,0.00 l0.00-32.00 l 32.00,0.00 c 17.673,0.00, 32.00-14.327, 32.00-32.00l0.00-64.00 l-64.00,0.00 l0.00-32.00 L 480.00,128.00 z M 288.00,128.165 c 35.255,0.00, 63.835,28.58, 63.835,63.835s-28.58,63.835-63.835,63.835c-35.255,0.00-63.835-28.58-63.835-63.835 S 252.745,128.165, 288.00,128.165z M 128.00,480.00L 96.00,480.00 L 96.00,32.00 l 32.00,0.00 L 128.00,480.00 z M 384.00,384.00L 192.00,384.00 l0.00-32.00 c0.00-35.347, 28.654-64.00, 64.00-64.00l0.00,0.00 l 64.00,0.00 c 35.348,0.00, 64.00,28.653, 64.00,64.00 L 384.00,384.00 z" ></path></svg>