<svg xmlns="http://www.w3.org/2000/svg" xmlns:xlink="http://www.w3.org/1999/xlink" viewBox="0 0 512 512"><path class="logo" d="M 448 128.00l-96.00 0 L 352 64 c0.00-17.60-14.40-32.00-32.00-32.00L 192 32 c-17.60 0.00-32.00 14.40-32.00 32.00l0.00 64 L 64 128 c-35.20 0.00-64.00 28.80-64.00 64.00l0.00 256 c0.00 35.2  28.8 64  64 64.00l 384 0 c 35.2 0  64.00-28.80  64.00-64.00L 512 192 C 512 156.8  483.2 128  448 128.00z M 192 64.00l 128 0 l0.00 64 L 192 128 L 192 64 z M 384 352.00l-96.00 0 l0.00 96 l-64.00 0 l0.00-96.00 l-96.00 0 l0.00-64.00 l 96 0 l0.00-96.00 l 64 0 l0.00 96 l 96 0 L 384 352 z"/></svg>
