<?xml version="1.0" encoding="utf-8"?>  <!DOCTYPE svg PUBLIC "-//W3C//DTD SVG 1.1//EN" "http://www.w3.org/Graphics/SVG/1.1/DTD/svg11.dtd"> <svg width="512" height="512" viewBox="0 0 512 512" xmlns="http://www.w3.org/2000/svg" xmlns:xlink="http://www.w3.org/1999/xlink" fill="#000000"><path d="M 395.749,272.046c-0.647-64.841, 52.879-95.938, 55.271-97.483c-30.076-44.01-76.925-50.039-93.621-50.736 c-39.871-4.037-77.798,23.474-98.033,23.474c-20.184,0.00-51.409-22.877-84.476-22.276c-43.458,0.646-83.529,25.269-105.906,64.19 c-45.152,78.349-11.563,194.42, 32.445,257.963c 21.504,31.102, 47.146,66.038, 80.813,64.79c 32.421-1.294, 44.681-20.979, 83.878-20.979 c 39.197,0.00, 50.214,20.979, 84.525,20.335c 34.887-0.648, 56.991-31.699, 78.346-62.898c 24.695-36.084, 34.863-71.019, 35.462-72.813 C 463.679,375.26, 396.423,349.495, 395.749,272.046zM 331.281,81.761C 349.15,60.082, 361.211,30.005, 357.921,0.00c-25.739,1.048-56.939,17.145-75.405,38.775 c-16.571,19.188-31.074,49.813-27.187,79.218C 284.062,120.235, 313.393,103.391, 331.281,81.761z" ></path></svg>