<?xml version="1.0" encoding="utf-8"?>  <!DOCTYPE svg PUBLIC "-//W3C//DTD SVG 1.1//EN" "http://www.w3.org/Graphics/SVG/1.1/DTD/svg11.dtd"> <svg width="512" height="512" viewBox="0 0 512 512" xmlns="http://www.w3.org/2000/svg" xmlns:xlink="http://www.w3.org/1999/xlink" fill="#000000"><path d="M 416.01,64.00c-0.006,0.00-0.014,0.00-0.02,0.00L 224.00,64.00 c-17.673,0.00-32.00,14.327-32.00,32.00s 14.327,32.00, 32.00,32.00l 114.746,0.00 L 73.373,393.373 c-12.497,12.496-12.497,32.758,0.00,45.254C 79.621,444.876, 87.811,448.00, 96.00,448.00s 16.379-3.124, 22.627-9.373L 384.00,173.254L 384.00,288.00 c0.00,17.673, 14.327,32.00, 32.00,32.00s 32.00-14.327, 32.00-32.00L 448.00,64.00 L 416.01,64.00 z" ></path></svg>