<?xml version="1.0" encoding="utf-8"?>  <!DOCTYPE svg PUBLIC "-//W3C//DTD SVG 1.1//EN" "http://www.w3.org/Graphics/SVG/1.1/DTD/svg11.dtd"> <svg width="512" height="512" viewBox="0 0 512 512" xmlns="http://www.w3.org/2000/svg" xmlns:xlink="http://www.w3.org/1999/xlink" fill="#000000"><path d="M 512.00,256.00C 512.00,397.385, 397.385,512.00, 256.00,512.00s -256.00-114.615, -256.00-256.00s 114.615-256.00, 256.00-256.00S 512.00,114.615, 512.00,256.00z M 48.00,256.00 c 0.00,114.875 93.125,208.00 208.00,208.00S 464.00,370.875, 464.00,256.00s -93.125-208.00, -208.00-208.00S 48.00,141.125, 48.00,256.00zM 278.627,105.372l 128.00,128.001c 12.497,12.496 12.497,32.757 0.00,45.254c -12.497,12.497 -32.758,12.497,-45.255,0.00L 288.00,205.255 L 288.00,384.00 c 0.00,17.673 -14.327,32.00 -32.00,32.00c-17.673,0.00, -32.00-14.327, -32.00-32.00l0.00-178.745 l -73.372,73.373c -12.497,12.497 -32.759,12.497,-45.256,0.00 C 99.124,272.379, 96.00,264.189, 96.00,256.00s 3.124-16.379, 9.372-22.627l 128.00-128.001C 245.869,92.876, 266.131,92.876, 278.627,105.372z" ></path></svg>