<?xml version="1.0" encoding="utf-8"?>  <!DOCTYPE svg PUBLIC "-//W3C//DTD SVG 1.1//EN" "http://www.w3.org/Graphics/SVG/1.1/DTD/svg11.dtd"> <svg width="512" height="512" viewBox="0 0 512 512" xmlns="http://www.w3.org/2000/svg" xmlns:xlink="http://www.w3.org/1999/xlink" fill="#000000"><path d="M 201.373,73.373l-160.00,160.00c-12.497,12.496-12.497,32.758,0.00,45.254l 160.00,160.00c 12.497,12.496, 32.758,12.496, 45.255,0.00 c 12.498-12.496, 12.498-32.758,0.00-45.254L 141.254,288.00L 448.00,288.00 c 17.673,0.00, 32.00-14.326, 32.00-32.00c0.00-17.673-14.327-32.00-32.00-32.00L 141.254,224.00 l 105.373-105.373 C 252.875,112.379, 256.00,104.189, 256.00,96.00s-3.124-16.379-9.372-22.627C 234.13,60.876, 213.87,60.876, 201.373,73.373z" ></path></svg>