<?xml version="1.0" encoding="utf-8"?>  <!DOCTYPE svg PUBLIC "-//W3C//DTD SVG 1.1//EN" "http://www.w3.org/Graphics/SVG/1.1/DTD/svg11.dtd"> <svg width="512" height="512" viewBox="0 0 512 512" xmlns="http://www.w3.org/2000/svg" xmlns:xlink="http://www.w3.org/1999/xlink" fill="#000000"><path d="M 73.373,310.627l 160.00,160.00c 12.496,12.497, 32.758,12.497, 45.255,0.00l 160.00-160.00c 12.496-12.497, 12.496-32.758,0.00-45.255 c-12.497-12.497-32.758-12.497-45.255,0.00L 288.00,370.745L 288.00,64.00 c0.00-17.673-14.327-32.00-32.00-32.00s-32.00,14.327-32.00,32.00l0.00,306.745 L 118.627,265.372 C 112.379,259.124, 104.189,256.00, 96.00,256.00s-16.379,3.124-22.627,9.372C 60.876,277.869, 60.876,298.13, 73.373,310.627z" ></path></svg>