<?xml version="1.0" encoding="utf-8"?>  <!DOCTYPE svg PUBLIC "-//W3C//DTD SVG 1.1//EN" "http://www.w3.org/Graphics/SVG/1.1/DTD/svg11.dtd"> <svg width="512" height="512" viewBox="0 0 512 512" xmlns="http://www.w3.org/2000/svg" xmlns:xlink="http://www.w3.org/1999/xlink" fill="#000000"><path d="M 438.627,201.373l-160.00-160.00c-12.496-12.497-32.757-12.497-45.254,0.00l-160.00,160.00c-12.497,12.497-12.497,32.758,0.00,45.255 c 12.497,12.498, 32.758,12.498, 45.255,0.00L 224.00,141.255L 224.00,448.00 c0.00,17.673, 14.327,32.00, 32.00,32.00c 17.673,0.00, 32.00-14.327, 32.00-32.00L 288.00,141.255 l 105.373,105.373 C 399.621,252.876, 407.811,256.00, 416.00,256.00s 16.379-3.124, 22.627-9.373C 451.124,234.13, 451.124,213.87, 438.627,201.373z" ></path></svg>