<?xml version="1.0" encoding="utf-8"?>  <!DOCTYPE svg PUBLIC "-//W3C//DTD SVG 1.1//EN" "http://www.w3.org/Graphics/SVG/1.1/DTD/svg11.dtd"> <svg width="512" height="512" viewBox="0 0 512 512" xmlns="http://www.w3.org/2000/svg" xmlns:xlink="http://www.w3.org/1999/xlink" fill="#000000"><path d="M 310.627,438.627l 160.00-160.00c 12.497-12.496, 12.497-32.758,0.00-45.255l-160.00-160.00c-12.497-12.496-32.758-12.496-45.255,0.00 c-12.497,12.497-12.497,32.758,0.00,45.255L 370.745,224.00L 64.00,224.00 c-17.673,0.00-32.00,14.327-32.00,32.00s 14.327,32.00, 32.00,32.00l 306.745,0.00 L 265.372,393.373 C 259.124,399.621, 256.00,407.811, 256.00,416.00s 3.124,16.379, 9.372,22.627C 277.869,451.124, 298.13,451.124, 310.627,438.627z" ></path></svg>