<?xml version="1.0" encoding="utf-8"?>  <!DOCTYPE svg PUBLIC "-//W3C//DTD SVG 1.1//EN" "http://www.w3.org/Graphics/SVG/1.1/DTD/svg11.dtd"> <svg width="512" height="512" viewBox="0 0 512 512" xmlns="http://www.w3.org/2000/svg" xmlns:xlink="http://www.w3.org/1999/xlink" fill="#000000"><path d="M 256.00,0.00C 397.385,0.00, 512.00,114.615, 512.00,256.00s -114.615,256.00, -256.00,256.00s -256.00-114.615, -256.00-256.00S 114.615,0.00, 256.00,0.00z M 256.00,464.00 c 114.875,0.00 208.00-93.125 208.00-208.00S 370.875,48.00, 256.00,48.00s -208.00,93.125, -208.00,208.00S 141.125,464.00, 256.00,464.00zM 320.00,128.00c 17.673,0.00 32.00,14.327 32.00,32.00s -14.327,32.00, -32.00,32.00l-82.744,0.00 L 374.627,329.372c 12.497,12.497 12.497,32.759,0.00,45.256 C 368.379,380.876, 360.189,384.00, 352.00,384.00s -16.379-3.124, -22.627-9.372L 192.00,237.255L 192.00,320.00 c0.00,17.673, -14.327,32.00, -32.00,32.00s -32.00-14.327, -32.00-32.00L 128.00,128.00 L 320.00,128.00 z" ></path></svg>