<?xml version="1.0" encoding="utf-8"?>  <!DOCTYPE svg PUBLIC "-//W3C//DTD SVG 1.1//EN" "http://www.w3.org/Graphics/SVG/1.1/DTD/svg11.dtd"> <svg width="512" height="512" viewBox="0 0 512 512" xmlns="http://www.w3.org/2000/svg" xmlns:xlink="http://www.w3.org/1999/xlink" fill="#000000"><path d="M0.00,64.00L 64.00,64.00L 64.00,384.00L0.00,384.00zM 96.00,64.00L 128.00,64.00L 128.00,384.00L 96.00,384.00zM 160.00,64.00L 192.00,64.00L 192.00,384.00L 160.00,384.00zM 256.00,64.00L 288.00,64.00L 288.00,384.00L 256.00,384.00zM 384.00,64.00L 416.00,64.00L 416.00,384.00L 384.00,384.00zM 480.00,64.00L 512.00,64.00L 512.00,384.00L 480.00,384.00zM 320.00,64.00L 336.00,64.00L 336.00,384.00L 320.00,384.00zM 224.00,64.00L 240.00,64.00L 240.00,384.00L 224.00,384.00zM 432.00,64.00L 448.00,64.00L 448.00,384.00L 432.00,384.00zM0.00,416.00L 32.00,416.00L 32.00,448.00L0.00,448.00zM 96.00,416.00L 128.00,416.00L 128.00,448.00L 96.00,448.00zM 160.00,416.00L 192.00,416.00L 192.00,448.00L 160.00,448.00zM 320.00,416.00L 352.00,416.00L 352.00,448.00L 320.00,448.00zM 480.00,416.00L 512.00,416.00L 512.00,448.00L 480.00,448.00zM 384.00,416.00L 448.00,416.00L 448.00,448.00L 384.00,448.00zM 224.00,416.00L 288.00,416.00L 288.00,448.00L 224.00,448.00z" ></path></svg>