<?xml version="1.0" encoding="utf-8"?>  <!DOCTYPE svg PUBLIC "-//W3C//DTD SVG 1.1//EN" "http://www.w3.org/Graphics/SVG/1.1/DTD/svg11.dtd"> <svg width="512" height="512" viewBox="0 0 512 512" xmlns="http://www.w3.org/2000/svg" xmlns:xlink="http://www.w3.org/1999/xlink" fill="#000000"><path d="M 144.00,192.00L 48.00,192.00 c-8.80,0.00-16.00,7.20-16.00,16.00l0.00,288.00 c0.00,8.80, 7.20,16.00, 16.00,16.00l 96.00,0.00 c 8.80,0.00, 16.00-7.20, 16.00-16.00L 160.00,208.00 C 160.00,199.20, 152.80,192.00, 144.00,192.00z M 144.00,480.00 L 48.00,480.00 L 48.00,352.00 l 96.00,0.00 L 144.00,480.00 zM 304.00,128.00l-96.00,0.00 c-8.80,0.00-16.00,7.20-16.00,16.00l0.00,352.00 c0.00,8.80, 7.20,16.00, 16.00,16.00l 96.00,0.00 c 8.80,0.00, 16.00-7.20, 16.00-16.00L 320.00,144.00 C 320.00,135.20, 312.80,128.00, 304.00,128.00z M 304.00,480.00l-96.00,0.00 L 208.00,320.00 l 96.00,0.00 L 304.00,480.00 zM 464.00,64.00l-96.00,0.00 c-8.80,0.00-16.00,7.20-16.00,16.00l0.00,416.00 c0.00,8.80, 7.20,16.00, 16.00,16.00l 96.00,0.00 c 8.80,0.00, 16.00-7.20, 16.00-16.00L 480.00,80.00 C 480.00,71.20, 472.80,64.00, 464.00,64.00z M 464.00,480.00l-96.00,0.00 L 368.00,288.00 l 96.00,0.00 L 464.00,480.00 z" ></path></svg>