<?xml version="1.0" encoding="utf-8"?>  <!DOCTYPE svg PUBLIC "-//W3C//DTD SVG 1.1//EN" "http://www.w3.org/Graphics/SVG/1.1/DTD/svg11.dtd"> <svg width="512" height="512" viewBox="0 0 512 512" xmlns="http://www.w3.org/2000/svg" xmlns:xlink="http://www.w3.org/1999/xlink" fill="#000000"><path d="M 32.00,0.00L 224.00,0.00L 224.00,32.00L 32.00,32.00zM 288.00,0.00L 480.00,0.00L 480.00,32.00L 288.00,32.00zM 476.00,160.00l-28.00,0.00 L 448.00,32.00 L 320.00,32.00 l0.00,128.00 L 192.00,160.00 L 192.00,32.00 L 64.00,32.00 l0.00,128.00 L 36.00,160.00 c-19.80,0.00-36.00,16.20-36.00,36.00l0.00,280.00 c0.00,19.80, 16.20,36.00, 36.00,36.00l 152.00,0.00 c 19.80,0.00, 36.00-16.20, 36.00-36.00L 224.00,288.00 l 64.00,0.00 l0.00,188.00 c0.00,19.80, 16.20,36.00, 36.00,36.00l 152.00,0.00 c 19.80,0.00, 36.00-16.20, 36.00-36.00L 512.00,196.00 C 512.00,176.20, 495.80,160.00, 476.00,160.00z M 174.00,480.00L 50.00,480.00 c-9.90,0.00-18.00-7.20-18.00-16.00 s 8.10-16.00, 18.00-16.00l 124.00,0.00 c 9.90,0.00, 18.00,7.20, 18.00,16.00S 183.90,480.00, 174.00,480.00z M 272.00,256.00l-32.00,0.00 c-8.80,0.00-16.00-7.20-16.00-16.00s 7.20-16.00, 16.00-16.00l 32.00,0.00 c 8.80,0.00, 16.00,7.20, 16.00,16.00 S 280.80,256.00, 272.00,256.00z M 462.00,480.00L 338.00,480.00 c-9.90,0.00-18.00-7.20-18.00-16.00s 8.10-16.00, 18.00-16.00l 124.00,0.00 c 9.90,0.00, 18.00,7.20, 18.00,16.00S 471.90,480.00, 462.00,480.00z" ></path></svg>