<?xml version="1.0" encoding="utf-8"?>  <!DOCTYPE svg PUBLIC "-//W3C//DTD SVG 1.1//EN" "http://www.w3.org/Graphics/SVG/1.1/DTD/svg11.dtd"> <svg width="512" height="512" viewBox="0 0 512 512" xmlns="http://www.w3.org/2000/svg" xmlns:xlink="http://www.w3.org/1999/xlink" fill="#000000"><path d="M0.00,256.00c0.00,141.385, 114.615,256.00, 256.00,256.00c 141.386,0.00, 256.00-114.615, 256.00-256.00S 397.386,0.00, 256.00,0.00C 114.615,0.00,0.00,114.615,0.00,256.00z M 448.00,256.00 c0.00,36.618-10.256,70.84-28.044,99.956L 156.045,92.044C 185.16,74.255, 219.382,64.00, 256.00,64.00C 362.038,64.00, 448.00,149.961, 448.00,256.00z M 64.00,256.00 c0.00-36.618, 10.256-70.839, 28.045-99.956l 263.911,263.912C 326.839,437.745, 292.618,448.00, 256.00,448.00C 149.962,448.00, 64.00,362.039, 64.00,256.00z" ></path></svg>