<?xml version="1.0" encoding="utf-8"?>  <!DOCTYPE svg PUBLIC "-//W3C//DTD SVG 1.1//EN" "http://www.w3.org/Graphics/SVG/1.1/DTD/svg11.dtd"> <svg width="512" height="512" viewBox="0 0 512 512" xmlns="http://www.w3.org/2000/svg" xmlns:xlink="http://www.w3.org/1999/xlink" fill="#000000"><path d="M 353.94,242.326C 372.689,220.055, 384.00,191.322, 384.00,160.00c0.00-70.58-57.421-128.00-128.00-128.00l-64.00,0.00 l-64.00,0.00 L 96.00,32.00 l0.00,448.00 l 32.00,0.00 l 64.00,0.00 l 96.00,0.00 c 70.579,0.00, 128.00-57.421, 128.00-128.00C 416.00,305.522, 391.101,264.752, 353.94,242.326z M 192.00,96.00l 50.75,0.00 c 27.984,0.00, 50.75,28.71, 50.75,64.00 s-22.766,64.00-50.75,64.00L 192.00,224.00 L 192.00,96.00 z M 271.50,416.00L 192.00,416.00 L 192.00,288.00 l 79.50,0.00 c 29.225,0.00, 53.00,28.71, 53.00,64.00S 300.725,416.00, 271.50,416.00z" ></path></svg>