<?xml version="1.0" encoding="utf-8"?>  <!DOCTYPE svg PUBLIC "-//W3C//DTD SVG 1.1//EN" "http://www.w3.org/Graphics/SVG/1.1/DTD/svg11.dtd"> <svg width="512" height="512" viewBox="0 0 512 512" xmlns="http://www.w3.org/2000/svg" xmlns:xlink="http://www.w3.org/1999/xlink" fill="#000000"><path d="M 480.00,128.00L 352.00,128.00 L 352.00,96.00 c0.00-17.60-14.40-32.00-32.00-32.00L 192.00,64.00 c-17.602,0.00-32.00,14.40-32.00,32.00l0.00,32.00 L 32.00,128.00 c-17.60,0.00-32.00,14.40-32.00,32.00l0.00,288.00 c0.00,17.601, 14.398,32.00, 32.00,32.00l 448.00,0.00 c 17.60,0.00, 32.00-14.399, 32.00-32.00L 512.00,160.00 C 512.00,142.40, 497.60,128.00, 480.00,128.00z M 192.00,96.058 c 0.017-0.02, 0.037-0.041, 0.057-0.058l 127.886,0.00 c 0.021,0.017, 0.041,0.038, 0.059,0.058L 320.002,128.00 L 192.00,128.00 L 192.00,96.058 z M 480.00,256.00l-64.00,0.00 l0.00,48.00 c0.00,8.801-7.20,16.00-16.00,16.00l-32.00,0.00 c-8.802,0.00-16.00-7.199-16.00-16.00l0.00-48.00 L 160.00,256.00 l0.00,48.00 c0.00,8.801-7.20,16.00-16.00,16.00l-32.00,0.00 c-8.801,0.00-16.00-7.199-16.00-16.00l0.00-48.00 L 32.00,256.00 l0.00-32.00 l 448.00,0.00 L 480.00,256.00 z" ></path></svg>