<?xml version="1.0" encoding="utf-8"?>  <!DOCTYPE svg PUBLIC "-//W3C//DTD SVG 1.1//EN" "http://www.w3.org/Graphics/SVG/1.1/DTD/svg11.dtd"> <svg width="512" height="512" viewBox="0 0 512 512" xmlns="http://www.w3.org/2000/svg" xmlns:xlink="http://www.w3.org/1999/xlink" fill="#000000"><path d="M 512.00,288.00l0.00-32.00 l-96.645,0.00 c-2.931-36.343-15.893-69.513-35.835-96.125l 80.972,0.00 l 35.03-140.12l-31.045-7.761l-28.97,115.88l-87.34,0.00 c-0.446-0.347-0.898-0.687-1.349-1.028c 3.355-9.751, 5.181-20.211, 5.181-31.097C 352.00,42.869, 309.02,0.00, 256.00,0.00s-96.00,42.869-96.00,95.75 c0.00,10.886, 1.825,21.346, 5.181,31.097c-0.45,0.342-0.902,0.681-1.349,1.028l-87.34,0.00 l-28.97-115.88l-31.045,7.761l 35.03,140.12l 80.972,0.00 C 112.537,186.487, 99.576,219.657, 96.645,256.00L0.00,256.00 l0.00,32.00 l 96.685,0.00 c 1.901,22.832, 7.754,44.406, 16.819,63.875L 51.508,351.875 l-35.03,140.119 l 31.045,7.762l 28.97-115.881l 56.177,0.00 C 162.016,422.891, 206.368,447.75, 256.00,447.75s 93.983-24.859, 123.331-63.875l 56.177,0.00 l 28.97,115.881 l 31.045-7.762l-35.03-140.119l-61.996,0.00 c 9.065-19.469, 14.918-41.043, 16.818-63.875L 512.00,288.00 z" ></path></svg>