<?xml version="1.0" encoding="utf-8"?>  <!DOCTYPE svg PUBLIC "-//W3C//DTD SVG 1.1//EN" "http://www.w3.org/Graphics/SVG/1.1/DTD/svg11.dtd"> <svg width="512" height="512" viewBox="0 0 512 512" xmlns="http://www.w3.org/2000/svg" xmlns:xlink="http://www.w3.org/1999/xlink" fill="#000000"><path d="M 192.00,32.00L 32.00,32.00 C 14.40,32.00,0.00,46.40,0.00,64.00l0.00,160.00 c0.00,17.60, 14.398,32.00, 32.00,32.00l 160.00,0.00 c 17.60,0.00, 32.00-14.40, 32.00-32.00L 224.00,64.00 C 224.00,46.40, 209.60,32.00, 192.00,32.00z M 192.00,160.00L 32.00,160.00 l0.00-32.00 l 160.00,0.00 L 192.00,160.00 z M 448.00,32.00L 288.00,32.00 c-17.602,0.00-32.00,14.40-32.00,32.00l0.00,416.00 c0.00,17.60, 14.398,32.00, 32.00,32.00l 160.00,0.00 c 17.60,0.00, 32.00-14.40, 32.00-32.00L 480.00,64.00 C 480.00,46.40, 465.60,32.00, 448.00,32.00z M 448.00,320.00L 288.00,320.00 l0.00-32.00 l 160.00,0.00 L 448.00,320.00 z M 448.00,224.00L 288.00,224.00 l0.00-32.00 l 160.00,0.00 L 448.00,224.00 z M 192.00,288.00L 32.00,288.00 c-17.60,0.00-32.00,14.40-32.00,32.00l0.00,160.00 c0.00,17.60, 14.398,32.00, 32.00,32.00l 160.00,0.00 c 17.60,0.00, 32.00-14.40, 32.00-32.00L 224.00,320.00 C 224.00,302.40, 209.60,288.00, 192.00,288.00z M 192.00,416.00l-64.00,0.00 l0.00,64.00 L 96.00,480.00 l0.00-64.00 L 32.00,416.00 l0.00-32.00 l 64.00,0.00 l0.00-64.00 l 32.00,0.00 l0.00,64.00 l 64.00,0.00 L 192.00,416.00 z" ></path></svg>