<?xml version="1.0" encoding="utf-8"?>  <!DOCTYPE svg PUBLIC "-//W3C//DTD SVG 1.1//EN" "http://www.w3.org/Graphics/SVG/1.1/DTD/svg11.dtd"> <svg width="512" height="512" viewBox="0 0 512 512" xmlns="http://www.w3.org/2000/svg" xmlns:xlink="http://www.w3.org/1999/xlink" fill="#000000"><path d="M 160.00,192.00L 224.00,192.00L 224.00,256.00L 160.00,256.00zM 256.00,192.00L 320.00,192.00L 320.00,256.00L 256.00,256.00zM 352.00,192.00L 416.00,192.00L 416.00,256.00L 352.00,256.00zM 64.00,384.00L 128.00,384.00L 128.00,448.00L 64.00,448.00zM 160.00,384.00L 224.00,384.00L 224.00,448.00L 160.00,448.00zM 256.00,384.00L 320.00,384.00L 320.00,448.00L 256.00,448.00zM 160.00,288.00L 224.00,288.00L 224.00,352.00L 160.00,352.00zM 256.00,288.00L 320.00,288.00L 320.00,352.00L 256.00,352.00zM 352.00,288.00L 416.00,288.00L 416.00,352.00L 352.00,352.00zM 64.00,288.00L 128.00,288.00L 128.00,352.00L 64.00,352.00zM 416.00,0.00l0.00,32.00 l-64.00,0.00 L 352.00,0.00 L 128.00,0.00 l0.00,32.00 L 64.00,32.00 L 64.00,0.00 L0.00,0.00 l0.00,512.00 l 480.00,0.00 L 480.00,0.00 L 416.00,0.00 z M 448.00,480.00L 32.00,480.00 L 32.00,128.00 l 416.00,0.00 L 448.00,480.00 z" ></path></svg>