<?xml version="1.0" encoding="utf-8"?>  <!DOCTYPE svg PUBLIC "-//W3C//DTD SVG 1.1//EN" "http://www.w3.org/Graphics/SVG/1.1/DTD/svg11.dtd"> <svg width="512" height="512" viewBox="0 0 512 512" xmlns="http://www.w3.org/2000/svg" xmlns:xlink="http://www.w3.org/1999/xlink" fill="#000000"><path d="M 192.00,144.00A80.00,80.00 10800.00 1,0 352.00,144A80.00,80.00 10800.00 1,0 192.00,144zM0.00,144.00A80.00,80.00 10800.00 1,0 160.00,144A80.00,80.00 10800.00 1,0 0.00,144zM 384.00,304.00l0.00-48.00 c0.00-17.60-14.40-32.00-32.00-32.00l-80.00,0.00 L 80.00,224.00 L 32.00,224.00 c-17.60,0.00-32.00,14.40-32.00,32.00l0.00,160.00 c0.00,17.60, 14.40,32.00, 32.00,32.00l 320.00,0.00 c 17.60,0.00, 32.00-14.40, 32.00-32.00 l0.00-48.00 l 128.00,80.00L 512.00,224.00 L 384.00,304.00z M 320.00,384.00L 64.00,384.00 l0.00-96.00 l 256.00,0.00 L 320.00,384.00 z" ></path></svg>