<?xml version="1.0" encoding="utf-8"?>  <!DOCTYPE svg PUBLIC "-//W3C//DTD SVG 1.1//EN" "http://www.w3.org/Graphics/SVG/1.1/DTD/svg11.dtd"> <svg width="512" height="512" viewBox="0 0 512 512" xmlns="http://www.w3.org/2000/svg" xmlns:xlink="http://www.w3.org/1999/xlink" fill="#000000"><path d="M 423.609,288.00c 17.60,0.00, 35.956-13.846, 40.791-30.769l 46.418-162.463C 515.653,77.846, 505.209,64.00, 487.609,64.00L 160.00,64.00 c0.00-35.346-28.654-64.00-64.00-64.00L0.00,0.00 l0.00,64.00 l 96.00,0.00 l0.00,272.00 c0.00,26.51, 21.49,48.00, 48.00,48.00l 304.00,0.00 c 17.673,0.00, 32.00-14.327, 32.00-32.00s-14.327-32.00-32.00-32.00L 160.00,320.00 l0.00-32.00 L 423.609,288.00 z M 160.00,128.00l 289.403,0.00 l-27.429,96.00L 160.00,224.00 L 160.00,128.00 zM 192.00,472.00c0.00,22.00-18.00,40.00-40.00,40.00l-16.00,0.00 c-22.00,0.00-40.00-18.00-40.00-40.00l0.00-16.00 c0.00-22.00, 18.00-40.00, 40.00-40.00l 16.00,0.00 c 22.00,0.00, 40.00,18.00, 40.00,40.00L 192.00,472.00 zM 480.00,472.00c0.00,22.00-18.00,40.00-40.00,40.00l-16.00,0.00 c-22.00,0.00-40.00-18.00-40.00-40.00l0.00-16.00 c0.00-22.00, 18.00-40.00, 40.00-40.00l 16.00,0.00 c 22.00,0.00, 40.00,18.00, 40.00,40.00L 480.00,472.00 z" ></path></svg>