<?xml version="1.0" encoding="utf-8"?>  <!DOCTYPE svg PUBLIC "-//W3C//DTD SVG 1.1//EN" "http://www.w3.org/Graphics/SVG/1.1/DTD/svg11.dtd"> <svg width="512" height="512" viewBox="0 0 512 512" xmlns="http://www.w3.org/2000/svg" xmlns:xlink="http://www.w3.org/1999/xlink" fill="#000000"><path d="M 445.502,180.03C 443.881,115.681, 391.273,64.00, 326.571,64.00c-37.896,0.00-71.633,17.747-93.427,45.366 c-12.221-15.799-31.345-25.98-52.854-25.98c-36.905,0.00-66.821,29.937-66.821,66.861c0.00,3.218, 0.24,6.38, 0.682,9.477 c-5.611-1.012-11.383-1.569-17.285-1.569C 43.367,158.154,0.00,201.548,0.00,255.076C0.00,308.607, 43.367,352.00, 96.865,352.00l 49.88,0.00 L 256.00,461.255 L 365.255,352.00l 59.741,0.00 l0.00-0.006 C 473.065,351.902, 512.00,312.888, 512.00,264.771C 512.00,223.726, 483.661,189.321, 445.502,180.03z M 256.00,416.00l-96.00-96.00 l 64.00,0.00 l0.00-96.00 l 64.00,0.00 l0.00,96.00 l 64.00,0.00 L 256.00,416.00z" ></path></svg>