<?xml version="1.0" encoding="utf-8"?>  <!DOCTYPE svg PUBLIC "-//W3C//DTD SVG 1.1//EN" "http://www.w3.org/Graphics/SVG/1.1/DTD/svg11.dtd"> <svg width="512" height="512" viewBox="0 0 512 512" xmlns="http://www.w3.org/2000/svg" xmlns:xlink="http://www.w3.org/1999/xlink" fill="#000000"><path d="M 240.00,32.00C 107.452,32.00,0.00,139.452,0.00,272.00c0.00,132.549, 107.452,240.00, 240.00,240.00c 132.549,0.00, 240.00-107.451, 240.00-240.00 C 480.00,139.452, 372.549,32.00, 240.00,32.00z M 240.00,464.00c-106.039,0.00-192.00-85.961-192.00-192.00c0.00-106.039, 85.961-192.00, 192.00-192.00 c 106.039,0.00, 192.00,85.961, 192.00,192.00C 432.00,378.039, 346.039,464.00, 240.00,464.00zM 256.00,256.00l0.00-64.00 l 64.00,0.00 l0.00-32.00 l-64.00,0.00 l0.00-32.00 l-32.00,0.00 l0.00,32.00 l-64.00,0.00 l0.00,128.00 l 64.00,0.00 l0.00,64.00 l-64.00,0.00 l0.00,32.00 l 64.00,0.00 l0.00,32.00 l 32.00,0.00 l0.00-32.00 l 64.00,0.00 l 0.001,0.00 L 320.00,256.00L 256.00,256.00 z M 224.00,256.00l-32.00,0.00 l0.00-64.00 l 32.00,0.00 L 224.00,256.00 z M 288.001,352.00L 256.00,352.00 l0.00-64.00 l 32.001,0.00 L 288.001,352.00 z" ></path></svg>