<?xml version="1.0" encoding="utf-8"?>  <!DOCTYPE svg PUBLIC "-//W3C//DTD SVG 1.1//EN" "http://www.w3.org/Graphics/SVG/1.1/DTD/svg11.dtd"> <svg width="512" height="512" viewBox="0 0 512 512" xmlns="http://www.w3.org/2000/svg" xmlns:xlink="http://www.w3.org/1999/xlink" fill="#000000"><path d="M 256.00,0.00C 114.615,0.00,0.00,114.615,0.00,256.00s 114.615,256.00, 256.00,256.00s 256.00-114.615, 256.00-256.00S 397.385,0.00, 256.00,0.00z M 256.00,464.00 c-114.875,0.00-208.00-93.125-208.00-208.00S 141.125,48.00, 256.00,48.00s 208.00,93.125, 208.00,208.00S 370.875,464.00, 256.00,464.00zM 304.00,208.00l-144.00-80.00l-32.00,0.00 l0.00,32.00 l 80.00,144.00l 144.00,80.00l 32.00,0.00 l0.00-32.00 L 304.00,208.00z M 256.00,288.00c-17.673,0.00-32.00-14.327-32.00-32.00c0.00-17.673, 14.327-32.00, 32.00-32.00 c 17.673,0.00, 32.00,14.327, 32.00,32.00C 288.00,273.673, 273.673,288.00, 256.00,288.00z" ></path></svg>