<?xml version="1.0" encoding="utf-8"?>  <!DOCTYPE svg PUBLIC "-//W3C//DTD SVG 1.1//EN" "http://www.w3.org/Graphics/SVG/1.1/DTD/svg11.dtd"> <svg width="512" height="512" viewBox="0 0 512 512" xmlns="http://www.w3.org/2000/svg" xmlns:xlink="http://www.w3.org/1999/xlink" fill="#000000"><path d="M 416.00,128.00l-96.00,0.00 L 320.00,96.00 L 224.00,0.00L0.00,0.00 l0.00,384.00 l 192.00,0.00 l0.00,128.00 l 320.00,0.00 L 512.00,224.00 L 416.00,128.00z M 416.00,173.255L 466.745,224.00L 416.00,224.00 L 416.00,173.255 z M 224.00,45.255L 274.745,96.00L 224.00,96.00 L 224.00,45.255 z M 32.00,32.00l 160.00,0.00 l0.00,96.00 l 96.00,0.00 l0.00,224.00 L 32.00,352.00 L 32.00,32.00 z M 480.00,480.00L 224.00,480.00 l0.00-96.00 l 96.00,0.00 L 320.00,160.00 l 64.00,0.00 l0.00,96.00 l 96.00,0.00 L 480.00,480.00 z" ></path></svg>