<?xml version="1.0" encoding="utf-8"?>  <!DOCTYPE svg PUBLIC "-//W3C//DTD SVG 1.1//EN" "http://www.w3.org/Graphics/SVG/1.1/DTD/svg11.dtd"> <svg width="512" height="512" viewBox="0 0 512 512" xmlns="http://www.w3.org/2000/svg" xmlns:xlink="http://www.w3.org/1999/xlink" fill="#000000"><path d="M 464.00,64.00L 48.00,64.00 C 21.60,64.00,0.00,85.60,0.00,112.00l0.00,288.00 c0.00,26.40, 21.60,48.00, 48.00,48.00l 416.00,0.00 c 26.40,0.00, 48.00-21.60, 48.00-48.00L 512.00,112.00 C 512.00,85.60, 490.40,64.00, 464.00,64.00z M 48.00,96.00 l 416.00,0.00 c 8.673,0.00, 16.00,7.327, 16.00,16.00l0.00,48.00 L 32.00,160.00 l0.00-48.00 C 32.00,103.327, 39.327,96.00, 48.00,96.00z M 464.00,416.00L 48.00,416.00 c-8.673,0.00-16.00-7.327-16.00-16.00L 32.00,256.00 l 448.00,0.00 l0.00,144.00 C 480.00,408.673, 472.673,416.00, 464.00,416.00zM 64.00,320.00L 96.00,320.00L 96.00,384.00L 64.00,384.00zM 128.00,320.00L 160.00,320.00L 160.00,384.00L 128.00,384.00zM 192.00,320.00L 224.00,320.00L 224.00,384.00L 192.00,384.00z" ></path></svg>