<?xml version="1.0" encoding="utf-8"?>  <!DOCTYPE svg PUBLIC "-//W3C//DTD SVG 1.1//EN" "http://www.w3.org/Graphics/SVG/1.1/DTD/svg11.dtd"> <svg width="512" height="512" viewBox="0 0 512 512" xmlns="http://www.w3.org/2000/svg" xmlns:xlink="http://www.w3.org/1999/xlink" fill="#000000"><path d="M 426.688,0.00L 85.343,0.00 C 38.405,0.00,0.00,38.408,0.00,85.346l0.00,341.312 C0.00,473.623, 38.405,512.00, 85.343,512.00l 341.345,0.00 C 473.625,512.00, 512.00,473.624, 512.00,426.658L 512.00,85.346 C 512.00,38.408, 473.625,0.00, 426.688,0.00z M 480.00,426.658c0.00,14.167-5.57,27.541-15.685,37.658 C 454.204,474.43, 440.841,480.00, 426.688,480.00L 256.00,480.00 L 256.00,256.00 L 32.00,256.00 L 32.00,85.346 c0.00-14.154, 5.575-27.525, 15.698-37.648C 57.82,37.575, 71.19,32.00, 85.343,32.00 L 256.00,32.00 l0.00,224.00 l 224.00,0.00 L 480.00,426.658 z" ></path></svg>