<?xml version="1.0" encoding="utf-8"?>  <!DOCTYPE svg PUBLIC "-//W3C//DTD SVG 1.1//EN" "http://www.w3.org/Graphics/SVG/1.1/DTD/svg11.dtd"> <svg width="512" height="512" viewBox="0 0 512 512" xmlns="http://www.w3.org/2000/svg" xmlns:xlink="http://www.w3.org/1999/xlink" fill="#000000"><path d="M 352.00,96.00L 160.00,96.00 L0.00,288.00l0.00,128.00 c0.00,17.673, 14.327,32.00, 32.00,32.00l 448.00,0.00 c 17.674,0.00, 32.00-14.327, 32.00-32.00L 512.00,288.00 L 352.00,96.00z M 320.00,352.00L 192.00,352.00 l-32.00-32.00l 192.00,0.00 L 320.00,352.00z M 41.655,288.00l 133.333-160.00l 162.024,0.00 l 133.333,160.00L 41.655,288.00 zM 142.482,192.00L 369.518,192.00L 342.851,160.00L 169.148,160.00 zM 89.149,256.00L 422.852,256.00L 396.185,224.00L 115.815,224.00 z" ></path></svg>