<?xml version="1.0" encoding="utf-8"?>  <!DOCTYPE svg PUBLIC "-//W3C//DTD SVG 1.1//EN" "http://www.w3.org/Graphics/SVG/1.1/DTD/svg11.dtd"> <svg width="512" height="512" viewBox="0 0 512 512" xmlns="http://www.w3.org/2000/svg" xmlns:xlink="http://www.w3.org/1999/xlink" fill="#000000"><path d="M 449.248,0.00 L 482.87,285.78 L 445.13,290.22 L 415.104,35.00 L 96.896,35.00 L 66.87,290.22 L 29.13,285.78 L 62.751,0.00 ZM 128.00,64.00L 384.00,64.00L 384.00,96.00L 128.00,96.00zM 128.00,128.00L 384.00,128.00L 384.00,160.00L 128.00,160.00zM 128.00,192.00L 384.00,192.00L 384.00,224.00L 128.00,224.00zM 128.00,256.00L 384.00,256.00L 384.00,288.00L 128.00,288.00zM 496.00,320.00L 16.00,320.00 c-8.80,0.00-13.723,6.83-10.94,15.179L 58.94,496.821C 61.723,505.17, 71.20,512.00, 80.00,512.00l 352.00,0.00 c 8.80,0.00, 18.276-6.83, 21.06-15.179l 53.881-161.643C 509.724,326.83, 504.80,320.00, 496.00,320.00z M 320.00,384.00L 192.00,384.00 l0.00-32.00 l 128.00,0.00 L 320.00,384.00 z" ></path></svg>