<?xml version="1.0" encoding="utf-8"?>  <!DOCTYPE svg PUBLIC "-//W3C//DTD SVG 1.1//EN" "http://www.w3.org/Graphics/SVG/1.1/DTD/svg11.dtd"> <svg width="512" height="512" viewBox="0 0 512 512" xmlns="http://www.w3.org/2000/svg" xmlns:xlink="http://www.w3.org/1999/xlink" fill="#000000"><path d="M 447.97,316.751c-0.006-0.353-0.015-0.701-0.021-1.053c-0.016-0.714-0.035-1.427-0.059-2.14C 442.875,155.734, 256.00,0.00, 256.00,0.00 S 69.123,155.734, 64.11,313.561c-0.022,0.715-0.044,1.426-0.06,2.141c-0.007,0.352-0.015,0.701-0.021,1.053 c-0.018,1.08-0.028,2.162-0.028,3.248c0.00,1.184, 0.014,2.361, 0.035,3.539c 0.002,0.098, 0.003,0.195, 0.007,0.293 C 66.082,428.101, 151.241,512.00, 256.00,512.00c 104.758,0.00, 189.916-83.899, 191.959-188.168c 0.002-0.098, 0.004-0.196, 0.005-0.293 c 0.021-1.178, 0.036-2.357, 0.036-3.539C 448.00,318.914, 447.988,317.832, 447.97,316.751z M 383.975,322.37l-0.004,0.203 c-0.659,33.643-14.266,65.167-38.313,88.774C 321.587,434.983, 289.743,448.00, 256.00,448.00c-6.231,0.00-12.397-0.447-18.462-1.319 c 69.528-41.423, 116.108-117.352, 116.108-204.161c0.00-9.728-0.59-19.317-1.726-28.74c 20.136,36.97, 31.032,71.40, 32.001,101.813 l 0.002,0.072c 0.016,0.474, 0.026,0.946, 0.039,1.422l 0.014,0.724C 383.99,318.539, 384.00,319.27, 384.00,320.00 C 384.00,320.792, 383.99,321.581, 383.975,322.37z" ></path></svg>