<?xml version="1.0" encoding="utf-8"?>  <!DOCTYPE svg PUBLIC "-//W3C//DTD SVG 1.1//EN" "http://www.w3.org/Graphics/SVG/1.1/DTD/svg11.dtd"> <svg width="512" height="512" viewBox="0 0 512 512" xmlns="http://www.w3.org/2000/svg" xmlns:xlink="http://www.w3.org/1999/xlink" fill="#000000"><path d="M 464.00,64.00L 48.00,64.00 C 21.60,64.00,0.00,85.60,0.00,112.00l0.00,320.00 c0.00,26.40, 21.60,48.00, 48.00,48.00l 416.00,0.00 c 26.40,0.00, 48.00-21.60, 48.00-48.00L 512.00,112.00 C 512.00,85.60, 490.40,64.00, 464.00,64.00z M 199.37,275.186L 64.00,380.632L 64.00,129.811 L 199.37,275.186z M 88.19,128.00L 423.81,128.00 L 256.00,254.00L 88.19,128.00z M 204.644,280.849L 256.00,336.00l 51.355-55.151 L 412.632,416.00L 99.368,416.00 L 204.644,280.849z M 312.63,275.186L 448.00,129.811l0.00,250.821 L 312.63,275.186z" ></path></svg>