<?xml version="1.0" encoding="utf-8"?>  <!DOCTYPE svg PUBLIC "-//W3C//DTD SVG 1.1//EN" "http://www.w3.org/Graphics/SVG/1.1/DTD/svg11.dtd"> <svg width="512" height="512" viewBox="0 0 512 512" xmlns="http://www.w3.org/2000/svg" xmlns:xlink="http://www.w3.org/1999/xlink" fill="#000000"><path d="M 192.00,256.00A64.00,64.00 2520.00 1,0 320.00,256A64.00,64.00 2520.00 1,0 192.00,256zM 332.174,115.263 C 382.10,142.342 416.00,195.212 416.00,256.00 C 416.00,316.788 382.10,369.658 332.174,396.737 C 354.207,361.674 368.00,311.602 368.00,256.00 C 368.00,200.398 354.207,150.326 332.174,115.263 ZM 144.00,256.00 C 144.00,311.602 157.792,361.674 179.826,396.737 C 129.90,369.657 96.00,316.788 96.00,256.00 C 96.00,195.212 129.90,142.343 179.826,115.263 C 157.792,150.326 144.00,200.398 144.00,256.00 ZM 48.00,256.00 C 48.00,341.95 75.202,419.092 118.326,471.861 C 47.175,426.387 0.00,346.704 0.00,256.00 C 0.00,165.296 47.175,85.613 118.326,40.139 C 75.202,92.908 48.00,170.05 48.00,256.00 ZM 393.676,40.14 C 464.825,85.613 512.00,165.296 512.00,256.00 C 512.00,346.704 464.825,426.387 393.676,471.86 C 436.798,419.092 464.00,341.95 464.00,256.00 C 464.00,170.05 436.798,92.908 393.676,40.14 Z" ></path></svg>