<?xml version="1.0" encoding="utf-8"?>  <!DOCTYPE svg PUBLIC "-//W3C//DTD SVG 1.1//EN" "http://www.w3.org/Graphics/SVG/1.1/DTD/svg11.dtd"> <svg width="512" height="512" viewBox="0 0 512 512" xmlns="http://www.w3.org/2000/svg" xmlns:xlink="http://www.w3.org/1999/xlink" fill="#000000"><path d="M 446.059,94.059l-60.117-60.118C 367.273,15.273, 330.40,0.00, 304.00,0.00L 80.00,0.00 C 53.60,0.00, 32.00,21.60, 32.00,48.00l0.00,416.00 c0.00,26.40, 21.60,48.00, 48.00,48.00l 352.00,0.00 c 26.40,0.00, 48.00-21.60, 48.00-48.00L 480.00,176.00 C 480.00,149.60, 464.727,112.727, 446.059,94.059z M 320.00,67.781c 1.098,0.402, 2.226,0.84, 3.379,1.318 c 9.03,3.741, 15.299,8.088, 17.308,10.097l 60.118,60.119c 2.009,2.009, 6.356,8.277, 10.097,17.307c 0.478,1.153, 0.916,2.281, 1.318,3.378 L 320.00,160.00 L 320.00,67.781 z M 416.00,448.00L 96.00,448.00 L 96.00,64.00 l 192.00,0.00 l0.00,128.00 l 128.00,0.00 L 416.00,448.00 zM 128.00,256.00L 384.00,256.00L 384.00,288.00L 128.00,288.00zM 128.00,320.00L 384.00,320.00L 384.00,352.00L 128.00,352.00zM 128.00,384.00L 384.00,384.00L 384.00,416.00L 128.00,416.00z" ></path></svg>