<?xml version="1.0" encoding="utf-8"?>  <!DOCTYPE svg PUBLIC "-//W3C//DTD SVG 1.1//EN" "http://www.w3.org/Graphics/SVG/1.1/DTD/svg11.dtd"> <svg width="512" height="512" viewBox="0 0 512 512" xmlns="http://www.w3.org/2000/svg" xmlns:xlink="http://www.w3.org/1999/xlink" fill="#000000"><path d="M 256.00,0.00C 114.615,0.00,0.00,35.817,0.00,80.00l0.00,48.00 l 192.00,192.00l0.00,160.00 c0.00,17.673, 28.653,32.00, 64.00,32.00c 35.346,0.00, 64.00-14.327, 64.00-32.00L 320.00,320.00 l 192.00-192.00L 512.00,80.00 C 512.00,35.817, 397.385,0.00, 256.00,0.00z M 47.192,69.412c 11.972-6.829, 28.791-13.31, 48.639-18.744C 139.803,38.63, 196.685,32.00, 256.00,32.00 c 59.314,0.00, 116.197,6.63, 160.169,18.668c 19.848,5.434, 36.667,11.915, 48.64,18.744c 7.896,4.503, 12.162,8.312, 14.148,10.588 c-1.986,2.276-6.253,6.084-14.148,10.588c-11.973,6.829-28.792,13.31-48.64,18.744C 372.198,121.37, 315.315,128.00, 256.00,128.00 c-59.315,0.00-116.197-6.63-160.169-18.668c-19.848-5.434-36.667-11.915-48.639-18.744C 39.296,86.084, 35.03,82.276, 33.043,80.00 C 35.03,77.724, 39.296,73.916, 47.192,69.412z" ></path></svg>