<?xml version="1.0" encoding="utf-8"?>  <!DOCTYPE svg PUBLIC "-//W3C//DTD SVG 1.1//EN" "http://www.w3.org/Graphics/SVG/1.1/DTD/svg11.dtd"> <svg width="512" height="512" viewBox="0 0 512 512" xmlns="http://www.w3.org/2000/svg" xmlns:xlink="http://www.w3.org/1999/xlink" fill="#000000"><path d="M 416.00,86.153 C 454.233,86.153 488.546,65.342 512.00,49.60 L 512.00,347.445 C 488.546,363.188 454.233,384.00 416.00,384.00 C 377.767,384.00 343.454,372.665 320.00,356.922 C 296.546,341.182 262.233,329.847 224.00,329.847 C 185.767,329.847 151.455,349.305 128.00,365.045 L 128.00,67.20 C 151.455,51.458 185.767,32.00 224.00,32.00 C 262.233,32.00 296.546,43.334 320.00,59.076 C 343.454,74.818 377.767,86.153 416.00,86.153 ZM 64.00,0.00 C 81.673,0.00 96.00,14.327 96.00,32.00 L 96.00,512.00 L 32.00,512.00 L 32.00,32.00 C 32.00,14.327 46.327,0.00 64.00,0.00 Z" ></path></svg>