<?xml version="1.0" encoding="utf-8"?>  <!DOCTYPE svg PUBLIC "-//W3C//DTD SVG 1.1//EN" "http://www.w3.org/Graphics/SVG/1.1/DTD/svg11.dtd"> <svg width="512" height="512" viewBox="0 0 512 512" xmlns="http://www.w3.org/2000/svg" xmlns:xlink="http://www.w3.org/1999/xlink" fill="#000000"><path d="M 183.781,0.00C 62.102,0.00,0.00,70.081,0.00,200.928l0.00,0.00l0.00,91.402 l0.00,183.115 l 119.195-119.314L 119.195,216.683 c0.00-54.208, 14.365-88.703, 62.559-96.447 l0.00,0.00c 16.836-3.292, 51.875-2.139, 74.153-2.139l0.00,0.00l0.00,82.798 c0.00,0.755, 0.104,2.103, 0.297,2.793l0.00,0.00c 0.935,3.352, 3.965,5.808, 7.558,5.815 l0.00,0.00c 2.031,0.004, 3.934-1.052, 5.895-2.985l0.00,0.00L 476.218,0.031L 337.562,0.00L 183.781,0.00 z M 392.805,155.873l0.00,139.445 c0.00,54.207-14.368,88.707-62.558,96.447l0.00,0.00c-16.836,3.291-51.878,2.139-74.156,2.139l0.00,0.00l0.00-82.797 c0.00-0.75-0.103-2.102-0.297-2.791 l0.00,0.00c-0.932-3.356-3.961-5.811-7.556-5.815l0.00,0.00c-2.032-0.004-3.933,1.056-5.895,2.983l0.00,0.00L 35.781,511.967L 174.434,512.00l 153.784,0.00 C 449.895,512.00, 512.00,441.916, 512.00,311.074l0.00,0.00l0.00-91.407 L 512.00,36.56 L 392.805,155.873z" ></path></svg>