<?xml version="1.0" encoding="utf-8"?>  <!DOCTYPE svg PUBLIC "-//W3C//DTD SVG 1.1//EN" "http://www.w3.org/Graphics/SVG/1.1/DTD/svg11.dtd"> <svg width="512" height="512" viewBox="0 0 512 512" xmlns="http://www.w3.org/2000/svg" xmlns:xlink="http://www.w3.org/1999/xlink" fill="#000000"><path d="M 400.00,208.00 C 364.71,208.00 336.00,236.71 336.00,272.00 C 336.00,307.29 364.71,336.00 400.00,336.00 C 435.29,336.00 464.00,307.29 464.00,272.00 C 464.00,236.71 435.29,208.00 400.00,208.00 Z M 400.00,160.00 L 400.00,160.00 C 461.855,160.00 512.00,210.144 512.00,272.00 C 512.00,333.855 461.855,384.00 400.00,384.00 C 338.145,384.00 288.00,333.855 288.00,272.00 C 288.00,210.144 338.145,160.00 400.00,160.00 ZM0.00,272.00A112.00,112.00 1080.00 1,0 224.00,272A112.00,112.00 1080.00 1,0 0.00,272z" ></path></svg>