<?xml version="1.0" encoding="utf-8"?>  <!DOCTYPE svg PUBLIC "-//W3C//DTD SVG 1.1//EN" "http://www.w3.org/Graphics/SVG/1.1/DTD/svg11.dtd"> <svg width="512" height="512" viewBox="0 0 512 512" xmlns="http://www.w3.org/2000/svg" xmlns:xlink="http://www.w3.org/1999/xlink" fill="#000000"><path d="M 399.798,8.104C 354.535,8.104, 325.488,0.00, 278.874,0.00C 128.232,0.00, 57.978,85.792, 57.978,172.936 c0.00,51.339, 24.32,68.229, 72.282,68.229c-3.379-7.432-9.457-15.54-9.457-52.017c0.00-102.005, 38.503-131.729, 87.818-133.755 c0.00,0.00-40.459,396.687-157.889,444.271L 50.732,512.00 l 84.359,0.00 l 73.938,0.00 l 54.013-256.00l 98.922,0.00 L 384.00,192.00L 276.546,192.00 l 25.972-123.095 c 29.723,6.078, 58.771,12.158, 83.766,12.158c 31.074,0.00, 59.447-9.457, 74.984-81.063C 442.355,6.08, 422.087,8.104, 399.798,8.104z" ></path></svg>