<?xml version="1.0" encoding="utf-8"?>  <!DOCTYPE svg PUBLIC "-//W3C//DTD SVG 1.1//EN" "http://www.w3.org/Graphics/SVG/1.1/DTD/svg11.dtd"> <svg width="512" height="512" viewBox="0 0 512 512" xmlns="http://www.w3.org/2000/svg" xmlns:xlink="http://www.w3.org/1999/xlink" fill="#000000"><path d="M 304.00,192.00 C 288.00,208.00 288.00,208.00 288.00,224.00 L 288.00,448.00 L 352.00,448.00 C 369.673,448.00 384.00,462.327 384.00,480.00 L 128.00,480.00 C 128.00,462.327 142.327,448.00 160.00,448.00 L 224.00,448.00 L 224.00,224.00 C 224.00,208.00 224.00,208.00 208.00,192.00 L 70.627,54.627 C 58.182,42.182 62.40,32.00 80.00,32.00 L 432.00,32.00 C 449.60,32.00 453.817,42.182 441.373,54.627 L 304.005,191.995 C 304.003,191.997 304.002,191.999 304.00,192.00 Z" ></path></svg>