<?xml version="1.0" encoding="utf-8"?>  <!DOCTYPE svg PUBLIC "-//W3C//DTD SVG 1.1//EN" "http://www.w3.org/Graphics/SVG/1.1/DTD/svg11.dtd"> <svg width="512" height="512" viewBox="0 0 512 512" xmlns="http://www.w3.org/2000/svg" xmlns:xlink="http://www.w3.org/1999/xlink" fill="#000000"><path d="M 426.756,0.00L 84.621,0.00 C 37.571,0.00,0.00,38.893,0.00,85.939l0.00,340.176 C0.00,474.326, 37.571,512.00, 84.621,512.00l 342.134,0.00 C 473.803,512.00, 512.00,474.326, 512.00,426.115L 512.00,85.939 C 512.00,38.893, 473.803,0.00, 426.756,0.00z M 352.00,16.00l0.00,80.00 l-80.00,0.00 L 272.00,16.00 L 352.00,16.00 z M 240.00,16.00l0.00,80.00 l-80.00,0.00 L 160.00,16.00 L 240.00,16.00 z M 16.00,96.00L 16.00,85.939 C 16.00,47.375, 46.783,16.00, 84.621,16.00L 128.00,16.00 l0.00,80.00 L 16.00,96.00 z M 384.00,320.00l-96.00,0.00 l0.00,96.00 l-64.00,0.00 l0.00-96.00 l-96.00,0.00 l0.00-64.00 l 96.00,0.00 l0.00-96.00 l 64.00,0.00 l0.00,96.00 l 96.00,0.00 L 384.00,320.00 z M 496.00,96.00L 384.00,96.00 L 384.00,16.00 l 42.756,0.00 C 464.938,16.00, 496.00,47.375, 496.00,85.939L 496.00,96.00 z" ></path></svg>