<?xml version="1.0" encoding="utf-8"?>  <!DOCTYPE svg PUBLIC "-//W3C//DTD SVG 1.1//EN" "http://www.w3.org/Graphics/SVG/1.1/DTD/svg11.dtd"> <svg width="512" height="512" viewBox="0 0 512 512" xmlns="http://www.w3.org/2000/svg" xmlns:xlink="http://www.w3.org/1999/xlink" fill="#000000"><path d="M 394.767,32.00c0.00,0.00-100.478,0.00-133.97,0.00c-60.061,0.00-116.585,45.503-116.585,98.211c0.00,53.863, 40.941,97.333, 102.044,97.333 c 4.249,0.00, 8.378-0.085, 12.42-0.376c-3.964,7.593-6.80,16.144-6.80,25.021c0.00,14.969, 8.052,27.105, 18.234,37.012 c-7.693,0.00-15.121,0.224-23.226,0.224c-74.391-0.001-131.65,47.38-131.65,96.511c0.00,48.389, 62.771,78.656, 137.167,78.656 c 84.812,0.00, 131.653-48.122, 131.653-96.514c0.00-38.801-11.448-62.036-46.843-87.067c-12.108-8.571-35.266-29.418-35.266-41.672 c0.00-14.36, 4.098-21.434, 25.714-38.323c 22.156-17.312, 37.837-41.651, 37.837-69.958c0.00-33.703-15.011-66.549-43.187-77.386l 42.478,0.00 L 394.767,32.00z M 347.974,359.729c 1.063,4.486, 1.642,9.104, 1.642,13.814c0.00,39.10-25.195,69.655-97.487,69.655 c-51.421,0.00-88.558-32.552-88.558-71.65c0.00-38.321, 46.063-70.222, 97.482-69.666c 12.00,0.127, 23.184,2.058, 33.334,5.345 C 322.301,326.641, 342.325,337.607, 347.974,359.729z M 265.643,213.888c-34.519-1.032-67.318-38.613-73.276-83.93 c-5.958-45.333, 17.185-80.021, 51.694-78.995C 278.565,52.00, 311.379,88.37, 317.34,133.692 C 323.293,179.022, 300.145,214.921, 265.643,213.888z" ></path></svg>