<?xml version="1.0" encoding="utf-8"?>  <!DOCTYPE svg PUBLIC "-//W3C//DTD SVG 1.1//EN" "http://www.w3.org/Graphics/SVG/1.1/DTD/svg11.dtd"> <svg width="512" height="512" viewBox="0 0 512 512" xmlns="http://www.w3.org/2000/svg" xmlns:xlink="http://www.w3.org/1999/xlink" fill="#000000"><path d="M 504.998,414.488L 354.226,263.716c-9.334-9.334-24.607-9.334-33.941,0.00l-11.313,11.313l-92.00-92.00L 368.00,32.00L 208.00,32.00 l-71.029,71.029 L 129.941,96.00L 96.00,96.00 l0.00,33.941 l 7.029,7.029L0.00,240.00l 80.00,80.00l 103.029-103.029l 92.00,92.00l-11.313,11.313c-9.334,9.334-9.334,24.607,0.00,33.941 l 150.772,150.772c 9.334,9.334, 24.607,9.334, 33.941,0.00l 56.568-56.568C 514.332,439.096, 514.332,423.822, 504.998,414.488z" ></path></svg>