<?xml version="1.0" encoding="utf-8"?>  <!DOCTYPE svg PUBLIC "-//W3C//DTD SVG 1.1//EN" "http://www.w3.org/Graphics/SVG/1.1/DTD/svg11.dtd"> <svg width="512" height="512" viewBox="0 0 512 512" xmlns="http://www.w3.org/2000/svg" xmlns:xlink="http://www.w3.org/1999/xlink" fill="#000000"><path d="M 512.00,179.078 C 512.00,222.259 493.391,261.093 463.755,288.00 L 464.00,288.00 L 304.00,448.00 C 288.00,464.00 272.00,480.00 256.00,480.00 C 240.00,480.00 224.00,464.00 208.00,448.00 L 48.00,288.00 L 48.245,288.00 C 18.609,261.093 0.00,222.259 0.00,179.078 C 0.00,97.849 65.849,32.00 147.078,32.00 C 174.803,32.00 200.729,39.682 222.864,53.018 L 176.00,128.00 L 288.00,192.00 L 224.00,352.00 L 400.00,160.00 L 288.00,96.00 L 327.446,36.83 C 339.412,33.686 351.969,32.00 364.922,32.00 C 446.15,32.00 512.00,97.849 512.00,179.078 Z" ></path></svg>