<?xml version="1.0" encoding="utf-8"?>  <!DOCTYPE svg PUBLIC "-//W3C//DTD SVG 1.1//EN" "http://www.w3.org/Graphics/SVG/1.1/DTD/svg11.dtd"> <svg width="512" height="512" viewBox="0 0 512 512" xmlns="http://www.w3.org/2000/svg" xmlns:xlink="http://www.w3.org/1999/xlink" fill="#000000"><path d="M 129.772,255.999A59.223,59.223 12600.00 1,0 248.218,255.999A59.223,59.223 12600.00 1,0 129.772,255.999zM 256.002,0.00C 114.615,0.00,0.00,114.616,0.00,256.00s 114.613,256.00, 256.002,256.00C 397.384,512.00, 512.00,397.385, 512.00,256.00 C 512.00,114.616, 397.385,0.00, 256.002,0.00z M 189.698,479.641C 112.72,434.854, 60.964,351.479, 60.964,256.00 c0.00-95.479, 51.756-178.854, 128.731-223.641C 266.70,77.14, 318.49,160.503, 318.49,256.00C 318.49,351.494, 266.70,434.859, 189.698,479.641z" ></path></svg>