<?xml version="1.0" encoding="utf-8"?>  <!DOCTYPE svg PUBLIC "-//W3C//DTD SVG 1.1//EN" "http://www.w3.org/Graphics/SVG/1.1/DTD/svg11.dtd"> <svg width="512" height="512" viewBox="0 0 512 512" xmlns="http://www.w3.org/2000/svg" xmlns:xlink="http://www.w3.org/1999/xlink" fill="#000000"><path d="M 192.00,96.00L 256.00,96.00L 256.00,128.00L 192.00,128.00zM 288.00,96.00L 352.00,96.00L 352.00,128.00L 288.00,128.00zM 448.00,96.00 L 448.00,224.00 L 352.00,224.00 L 352.00,192.00 L 416.00,192.00 L 416.00,128.00 L 384.00,128.00 L 384.00,96.00 ZM 160.00,192.00L 224.00,192.00L 224.00,224.00L 160.00,224.00zM 256.00,192.00L 320.00,192.00L 320.00,224.00L 256.00,224.00zM 96.00,128.00 L 96.00,192.00 L 128.00,192.00 L 128.00,224.00 L 64.00,224.00 L 64.00,96.00 L 160.00,96.00 L 160.00,128.00 ZM 192.00,288.00L 256.00,288.00L 256.00,320.00L 192.00,320.00zM 288.00,288.00L 352.00,288.00L 352.00,320.00L 288.00,320.00zM 448.00,288.00 L 448.00,416.00 L 352.00,416.00 L 352.00,384.00 L 416.00,384.00 L 416.00,320.00 L 384.00,320.00 L 384.00,288.00 ZM 160.00,384.00L 224.00,384.00L 224.00,416.00L 160.00,416.00zM 256.00,384.00L 320.00,384.00L 320.00,416.00L 256.00,416.00zM 96.00,320.00 L 96.00,384.00 L 128.00,384.00 L 128.00,416.00 L 64.00,416.00 L 64.00,288.00 L 160.00,288.00 L 160.00,320.00 ZM 480.00,32.00 L 32.00,32.00 L 32.00,480.00 L 480.00,480.00 L 480.00,32.00 Z M 512.00,0.00 L 512.00,0.00 L 512.00,512.00 L 0.00,512.00 L 0.00,0.00 L 512.00,0.00 Z" ></path></svg>