<?xml version="1.0" encoding="utf-8"?>  <!DOCTYPE svg PUBLIC "-//W3C//DTD SVG 1.1//EN" "http://www.w3.org/Graphics/SVG/1.1/DTD/svg11.dtd"> <svg width="512" height="512" viewBox="0 0 512 512" xmlns="http://www.w3.org/2000/svg" xmlns:xlink="http://www.w3.org/1999/xlink" fill="#000000"><path d="M 352.00,0.00c-88.365,0.00-160.00,71.634-160.00,160.00c0.00,10.013, 0.929,19.808, 2.688,29.312L0.00,384.00l0.00,96.00 c0.00,17.673, 14.327,32.00, 32.00,32.00 l 32.00,0.00 l0.00-32.00 l 64.00,0.00 l0.00-64.00 l 64.00,0.00 l0.00-64.00 l 64.00,0.00 l 41.521-41.521C 314.526,316.637, 332.869,320.00, 352.00,320.00c 88.365,0.00, 160.00-71.634, 160.00-160.00S 440.365,0.00, 352.00,0.00z M 399.937,160.063c-26.51,0.00-48.00-21.49-48.00-48.00s 21.49-48.00, 48.00-48.00s 48.00,21.49, 48.00,48.00S 426.447,160.063, 399.937,160.063z" ></path></svg>