<?xml version="1.0" encoding="utf-8"?>  <!DOCTYPE svg PUBLIC "-//W3C//DTD SVG 1.1//EN" "http://www.w3.org/Graphics/SVG/1.1/DTD/svg11.dtd"> <svg width="576" height="512" viewBox="0 0 576 512" xmlns="http://www.w3.org/2000/svg" xmlns:xlink="http://www.w3.org/1999/xlink" fill="#000000"><path d="M 544.00,64.00L 32.00,64.00 C 14.40,64.00,0.00,78.40,0.00,96.00l0.00,320.00 c0.00,17.60, 14.40,32.00, 32.00,32.00l 512.00,0.00 c 17.60,0.00, 32.00-14.40, 32.00-32.00L 576.00,96.00 C 576.00,78.40, 561.60,64.00, 544.00,64.00z M 320.00,128.00 l 64.00,0.00 l0.00,64.00 l-64.00,0.00 L 320.00,128.00 z M 416.00,224.00l0.00,64.00 l-64.00,0.00 l0.00-64.00 L 416.00,224.00 z M 224.00,128.00l 64.00,0.00 l0.00,64.00 l-64.00,0.00 L 224.00,128.00 z M 320.00,224.00l0.00,64.00 l-64.00,0.00 l0.00-64.00 L 320.00,224.00 z M 128.00,128.00l 64.00,0.00 l0.00,64.00 l-64.00,0.00 L 128.00,128.00 z M 224.00,224.00l0.00,64.00 l-64.00,0.00 l0.00-64.00 L 224.00,224.00 z M 64.00,128.00l 32.00,0.00 l0.00,64.00 L 64.00,192.00 L 64.00,128.00 z M 64.00,224.00l 64.00,0.00 l0.00,64.00 L 64.00,288.00 L 64.00,224.00 z M 96.00,384.00L 64.00,384.00 l0.00-64.00 l 32.00,0.00 L 96.00,384.00 z M 384.00,384.00L 128.00,384.00 l0.00-64.00 l 256.00,0.00 L 384.00,384.00 z M 512.00,384.00l-96.00,0.00 l0.00-64.00 l 96.00,0.00 L 512.00,384.00 z M 512.00,288.00l-64.00,0.00 l0.00-64.00 l 64.00,0.00 L 512.00,288.00 z M 512.00,192.00l-96.00,0.00 l0.00-64.00 l 96.00,0.00 L 512.00,192.00 z" ></path></svg>