<?xml version="1.0" encoding="utf-8"?>  <!DOCTYPE svg PUBLIC "-//W3C//DTD SVG 1.1//EN" "http://www.w3.org/Graphics/SVG/1.1/DTD/svg11.dtd"> <svg width="512" height="512" viewBox="0 0 512 512" xmlns="http://www.w3.org/2000/svg" xmlns:xlink="http://www.w3.org/1999/xlink" fill="#000000"><path d="M 448.00,352.00L 448.00,96.00 c0.00-17.60-14.40-32.00-32.00-32.00L 96.00,64.00 c-17.60,0.00-32.00,14.40-32.00,32.00l0.00,256.00 L0.00,352.00 l0.00,96.00 l 512.00,0.00 l0.00-96.00 L 448.00,352.00 z M 320.00,416.00L 192.00,416.00 l0.00-32.00 l 128.00,0.00 L 320.00,416.00 z M 416.00,352.00L 96.00,352.00 L 96.00,96.057 c 0.017-0.02, 0.038-0.041, 0.057-0.057l 319.885,0.00 c 0.02,0.017, 0.041,0.038, 0.058,0.058L 416.00,352.00 z" ></path></svg>