<?xml version="1.0" encoding="utf-8"?>  <!DOCTYPE svg PUBLIC "-//W3C//DTD SVG 1.1//EN" "http://www.w3.org/Graphics/SVG/1.1/DTD/svg11.dtd"> <svg width="512" height="512" viewBox="0 0 512 512" xmlns="http://www.w3.org/2000/svg" xmlns:xlink="http://www.w3.org/1999/xlink" fill="#000000"><path d="M 358.774,0.00c-84.382,139.493-151.15,70.891-248.795,171.215c-86.168,88.533-56.291,195.153, 16.262,231.872 c 71.615-36.594, 144.884-118.411, 199.225-236.862c0.00,0.00, 48.833,149.572-100.745,293.687c 72.634,85.074, 195.914,25.886, 230.363-109.459 C 492.533,203.316, 394.89,53.505, 358.774,0.00zM 48.506,483.121C 48.564,484.574, 50.217,512.00, 86.189,512.00c 26.172,0.00, 158.916-72.339, 227.133-260.102 C 210.103,434.505, 60.262,479.817, 48.506,483.121z" ></path></svg>