<?xml version="1.0" encoding="utf-8"?>  <!DOCTYPE svg PUBLIC "-//W3C//DTD SVG 1.1//EN" "http://www.w3.org/Graphics/SVG/1.1/DTD/svg11.dtd"> <svg width="512" height="512" viewBox="0 0 512 512" xmlns="http://www.w3.org/2000/svg" xmlns:xlink="http://www.w3.org/1999/xlink" fill="#000000"><path d="M 256.00,0.00L0.00,160.00l 512.00,0.00 L 256.00,0.00z M 400.00,192.00l 16.00,32.00l0.00,192.00 l 64.00,0.00 L 480.00,224.00 l 16.00-32.00L 400.00,192.00 z M 272.00,192.00l 16.00,32.00l0.00,192.00 l 64.00,0.00 L 352.00,224.00 l 16.00-32.00L 272.00,192.00 z M 144.00,192.00l 16.00,32.00l0.00,192.00 l 64.00,0.00 L 224.00,224.00 l 16.00-32.00L 144.00,192.00 z M 16.00,192.00l 16.00,32.00l0.00,192.00 l 64.00,0.00 L 96.00,224.00 l 16.00-32.00L 16.00,192.00 z M 16.00,448.00L0.00,512.00l 512.00,0.00 l-16.00-64.00L 16.00,448.00 z M 288.00,96.00c0.00,17.673-14.327,32.00-32.00,32.00 c-17.673,0.00-32.00-14.327-32.00-32.00s 14.327-32.00, 32.00-32.00C 273.673,64.00, 288.00,78.327, 288.00,96.00z" ></path></svg>