<?xml version="1.0" encoding="utf-8"?>  <!DOCTYPE svg PUBLIC "-//W3C//DTD SVG 1.1//EN" "http://www.w3.org/Graphics/SVG/1.1/DTD/svg11.dtd"> <svg width="512" height="512" viewBox="0 0 512 512" xmlns="http://www.w3.org/2000/svg" xmlns:xlink="http://www.w3.org/1999/xlink" fill="#000000"><path d="M 256.00,0.00C 167.634,0.00, 96.00,71.634, 96.00,160.00c0.00,160.00, 160.00,352.00, 160.00,352.00s 160.00-192.00, 160.00-352.00C 416.00,71.634, 344.365,0.00, 256.00,0.00z M 256.00,258.00 c-54.124,0.00-98.00-43.876-98.00-98.00s 43.876-98.00, 98.00-98.00s 98.00,43.876, 98.00,98.00S 310.124,258.00, 256.00,258.00zM 194.00,160.00A62.00,62.00 1080.00 1,0 318.00,160A62.00,62.00 1080.00 1,0 194.00,160z" ></path></svg>