<?xml version="1.0" encoding="utf-8"?>  <!DOCTYPE svg PUBLIC "-//W3C//DTD SVG 1.1//EN" "http://www.w3.org/Graphics/SVG/1.1/DTD/svg11.dtd"> <svg width="512" height="512" viewBox="0 0 512 512" xmlns="http://www.w3.org/2000/svg" xmlns:xlink="http://www.w3.org/1999/xlink" fill="#000000"><path d="M 429.751,13.271L 427.454,0.00L 304.00,0.00 l 3.301,18.771c 11.173,63.55, 37.161,218.268, 37.161,282.229c0.00,49.075-39.684,89.00-88.462,89.00 c-48.778,0.00-88.461-39.925-88.461-89.00c0.00-63.963, 25.988-218.68, 37.162-282.229L 208.00,0.00L 84.546,0.00 l-2.297,13.271 C 68.711,91.482, 46.00,232.864, 46.00,301.00c0.00,116.346, 94.206,211.00, 210.00,211.00c 115.794,0.00, 210.00-94.654, 210.00-211.00 C 466.00,232.867, 443.289,91.484, 429.751,13.271z M 256.00,480.00c-98.149,0.00-178.00-80.299-178.00-179.00c0.00-40.386, 8.46-108.538, 18.083-173.00l 58.173,0.00 c-9.997,65.617-18.717,134.028-18.717,173.00c0.00,66.72, 54.039,121.00, 120.461,121.00c 66.423,0.00, 120.462-54.28, 120.462-121.00 c0.00-38.971-8.721-107.382-18.718-173.00l 58.173,0.00 C 425.54,192.463, 434.00,260.616, 434.00,301.00C 434.00,399.701, 354.149,480.00, 256.00,480.00z" ></path></svg>