<?xml version="1.0" encoding="utf-8"?>  <!DOCTYPE svg PUBLIC "-//W3C//DTD SVG 1.1//EN" "http://www.w3.org/Graphics/SVG/1.1/DTD/svg11.dtd"> <svg width="512" height="512" viewBox="0 0 512 512" xmlns="http://www.w3.org/2000/svg" xmlns:xlink="http://www.w3.org/1999/xlink" fill="#000000"><path d="M 426.655,0.00L 85.345,0.00 C 38.405,0.00,0.00,38.392,0.00,85.329l0.00,341.328 C0.00,473.595, 38.405,512.00, 85.345,512.00l 341.311,0.00 C 473.625,512.00, 512.00,473.595, 512.00,426.657L 512.00,85.329 C 512.00,38.392, 473.625,0.00, 426.655,0.00z M 128.00,128.00l 256.00,0.00 c 4.569,0.00, 9.002,0.981, 13.072,2.831 L 256.00,295.415L 114.928,130.83C 118.998,128.982, 123.431,128.00, 128.00,128.00z M 96.00,352.00L 96.00,160.00 c0.00-0.67, 0.028-1.336, 0.07-2.00l 93.832,109.47 L 97.103,360.27C 96.381,357.601, 96.00,354.827, 96.00,352.00z M 384.00,384.00L 128.00,384.00 c-2.827,0.00-5.601-0.381-8.27-1.103l 91.059-91.059L 256.00,344.586 l 45.212-52.747l 91.058,91.059C 389.60,383.619, 386.827,384.00, 384.00,384.00z M 416.00,352.00c0.00,2.827-0.381,5.60-1.103,8.27l-92.799-92.799L 415.93,158.00 c 0.042,0.664, 0.07,1.33, 0.07,2.00L 416.00,352.00 z" ></path></svg>