<?xml version="1.0" encoding="utf-8"?>  <!DOCTYPE svg PUBLIC "-//W3C//DTD SVG 1.1//EN" "http://www.w3.org/Graphics/SVG/1.1/DTD/svg11.dtd"> <svg width="512" height="512" viewBox="0 0 512 512" xmlns="http://www.w3.org/2000/svg" xmlns:xlink="http://www.w3.org/1999/xlink" fill="#000000"><path d="M 426.671,0.00L 85.343,0.00 C 38.406,0.00,0.00,38.405,0.00,85.345l0.00,341.311 C0.00,473.625, 38.406,512.00, 85.343,512.00l 341.328,0.00 C 473.609,512.00, 512.00,473.625, 512.00,426.655L 512.00,85.345 C 512.00,38.405, 473.609,0.00, 426.671,0.00z M 91.314,443.313l-38.628-38.627l 128.00-128.00 l 14.628,14.627L 91.314,443.313z M 76.686,99.314l 14.628-14.628L 256.00,217.373L 420.687,84.686l 14.627,14.628L 256.00,310.627L 76.686,99.314z M 420.687,443.313l-104.00-152.00l 14.627-14.627l 128.00,128.00L 420.687,443.313z" ></path></svg>