<?xml version="1.0" encoding="utf-8"?>  <!DOCTYPE svg PUBLIC "-//W3C//DTD SVG 1.1//EN" "http://www.w3.org/Graphics/SVG/1.1/DTD/svg11.dtd"> <svg width="512" height="512" viewBox="0 0 512 512" xmlns="http://www.w3.org/2000/svg" xmlns:xlink="http://www.w3.org/1999/xlink" fill="#000000"><path d="M 256.00,0.00C 114.615,0.00,0.00,114.615,0.00,256.00s 114.615,256.00, 256.00,256.00s 256.00-114.615, 256.00-256.00S 397.385,0.00, 256.00,0.00z M 151.418,417.076 C 156.971,401.76, 160.00,385.232, 160.00,368.00c0.00-62.175-39.405-115.146-94.604-135.303c 5.105-42.462, 24.127-81.749, 54.839-112.462 C 156.50,83.972, 204.715,64.00, 256.00,64.00s 99.50,19.972, 135.765,56.235c 30.714,30.713, 49.734,70.00, 54.841,112.462 C 391.405,252.854, 352.00,305.825, 352.00,368.00c0.00,17.234, 3.03,33.76, 8.583,49.075C 329.73,437.196, 293.698,448.00, 256.00,448.00 C 218.303,448.00, 182.271,437.196, 151.418,417.076zM 275.877,320.498 C 282.816,322.245 288.00,328.538 288.00,336.00 L 288.00,368.00 C 288.00,376.80 280.80,384.00 272.00,384.00 L 240.00,384.00 C 231.20,384.00 224.00,376.80 224.00,368.00 L 224.00,336.00 C 224.00,328.538 229.184,322.245 236.123,320.498 L 248.00,96.00 L 264.00,96.00 L 275.877,320.498 Z" ></path></svg>