<?xml version="1.0" encoding="utf-8"?>  <!DOCTYPE svg PUBLIC "-//W3C//DTD SVG 1.1//EN" "http://www.w3.org/Graphics/SVG/1.1/DTD/svg11.dtd"> <svg width="512" height="512" viewBox="0 0 512 512" xmlns="http://www.w3.org/2000/svg" xmlns:xlink="http://www.w3.org/1999/xlink" fill="#000000"><path d="M 160.00,96.00 L 512.00,0.00 L 512.00,32.00 L 512.00,96.00 L 512.00,368.00 C 512.00,412.183 461.855,448.00 400.00,448.00 C 338.145,448.00 288.00,412.183 288.00,368.00 C 288.00,323.817 338.145,288.00 400.00,288.00 C 417.179,288.00 433.451,290.766 448.00,295.703 L 448.00,130.909 L 224.00,192.00 L 224.00,432.00 C 224.00,476.183 173.856,512.00 112.00,512.00 C 50.144,512.00 0.00,476.183 0.00,432.00 C 0.00,387.817 50.144,352.00 112.00,352.00 C 129.179,352.00 145.451,354.766 160.00,359.703 L 160.00,192.00 L 160.00,96.00 Z" ></path></svg>