<?xml version="1.0" encoding="utf-8"?>  <!DOCTYPE svg PUBLIC "-//W3C//DTD SVG 1.1//EN" "http://www.w3.org/Graphics/SVG/1.1/DTD/svg11.dtd"> <svg width="512" height="512" viewBox="0 0 512 512" xmlns="http://www.w3.org/2000/svg" xmlns:xlink="http://www.w3.org/1999/xlink" fill="#000000"><path d="M 192.00,416.00L 512.00,416.00L 512.00,480.00L 192.00,480.00zM 192.00,224.00L 512.00,224.00L 512.00,288.00L 192.00,288.00zM 192.00,32.00L 512.00,32.00L 512.00,96.00L 192.00,96.00zM 96.00,0.00 L 96.00,128.00 L 64.00,128.00 L 64.00,32.00 L 32.00,32.00 L 32.00,0.00 ZM 64.00,263.00 L 64.00,288.00 L 128.00,288.00 L 128.00,320.00 L 32.00,320.00 L 32.00,247.00 L 96.00,217.00 L 96.00,192.00 L 32.00,192.00 L 32.00,160.00 L 128.00,160.00 L 128.00,233.00 ZM 128.00,352.00 L 128.00,512.00 L 32.00,512.00 L 32.00,480.00 L 96.00,480.00 L 96.00,448.00 L 32.00,448.00 L 32.00,416.00 L 96.00,416.00 L 96.00,384.00 L 32.00,384.00 L 32.00,352.00 Z" ></path></svg>