<?xml version="1.0" encoding="utf-8"?>  <!DOCTYPE svg PUBLIC "-//W3C//DTD SVG 1.1//EN" "http://www.w3.org/Graphics/SVG/1.1/DTD/svg11.dtd"> <svg width="512" height="512" viewBox="0 0 512 512" xmlns="http://www.w3.org/2000/svg" xmlns:xlink="http://www.w3.org/1999/xlink" fill="#000000"><path d="M0.00,512.00l 256.00,0.00 L 256.00,0.00 L0.00,0.00 L0.00,512.00 z M 160.00,64.00l 64.00,0.00 l0.00,64.00 l-64.00,0.00 L 160.00,64.00 z M 160.00,192.00l 64.00,0.00 l0.00,64.00 l-64.00,0.00 L 160.00,192.00 z M 160.00,320.00l 64.00,0.00 l0.00,64.00 l-64.00,0.00 L 160.00,320.00 z M 32.00,64.00l 64.00,0.00 l0.00,64.00 L 32.00,128.00 L 32.00,64.00 z M 32.00,192.00 l 64.00,0.00 l0.00,64.00 L 32.00,256.00 L 32.00,192.00 z M 32.00,320.00l 64.00,0.00 l0.00,64.00 L 32.00,384.00 L 32.00,320.00 zM 288.00,160.00L 512.00,160.00L 512.00,192.00L 288.00,192.00zM 288.00,512.00L 352.00,512.00L 352.00,384.00L 448.00,384.00L 448.00,512.00L 512.00,512.00L 512.00,224.00L 288.00,224.00 z" ></path></svg>