<?xml version="1.0" encoding="utf-8"?>  <!DOCTYPE svg PUBLIC "-//W3C//DTD SVG 1.1//EN" "http://www.w3.org/Graphics/SVG/1.1/DTD/svg11.dtd"> <svg width="512" height="512" viewBox="0 0 512 512" xmlns="http://www.w3.org/2000/svg" xmlns:xlink="http://www.w3.org/1999/xlink" fill="#000000"><path d="M 512.00,288.00L 512.00,96.00 l-96.00,0.00 L 416.00,64.00 c0.00-17.60-14.40-32.00-32.00-32.00L 32.00,32.00 C 14.40,32.00,0.00,46.40,0.00,64.00l0.00,96.00 c0.00,17.60, 14.40,32.00, 32.00,32.00l 352.00,0.00 c 17.60,0.00, 32.00-14.40, 32.00-32.00l0.00-32.00 l 64.00,0.00 l0.00,128.00 L 192.00,256.00 l0.00,64.00 l-16.00,0.00 c-8.837,0.00-16.00,7.163-16.00,16.00l0.00,160.00 c0.00,8.837, 7.163,16.00, 16.00,16.00l 64.00,0.00 c 8.837,0.00, 16.00-7.163, 16.00-16.00L 256.00,336.00 c0.00-8.837-7.163-16.00-16.00-16.00l-16.00,0.00 l0.00-32.00 L 512.00,288.00 z M 384.00,96.00L 32.00,96.00 L 32.00,64.00 l 352.00,0.00 L 384.00,96.00 z" ></path></svg>