<?xml version="1.0" encoding="utf-8"?>  <!DOCTYPE svg PUBLIC "-//W3C//DTD SVG 1.1//EN" "http://www.w3.org/Graphics/SVG/1.1/DTD/svg11.dtd"> <svg width="512" height="512" viewBox="0 0 512 512" xmlns="http://www.w3.org/2000/svg" xmlns:xlink="http://www.w3.org/1999/xlink" fill="#000000"><path d="M 352.00,64.00l-64.00,0.00 L 288.00,32.00 c0.00-17.60-14.40-32.00-32.00-32.00l-64.00,0.00 c-17.602,0.00-32.00,14.40-32.00,32.00l0.00,32.00 L 96.00,64.00 l0.00,64.00 l 256.00,0.00 L 352.00,64.00 z M 256.00,64.00l-64.00,0.00 L 192.00,32.057 c 0.017-0.019, 0.036-0.039, 0.057-0.057l 63.884,0.00 c 0.021,0.018, 0.041,0.038, 0.059,0.057L 256.00,64.00 zM 416.00,160.00L 416.00,80.00 c0.00-8.80-7.20-16.00-16.00-16.00l-32.00,0.00 l0.00,32.00 l 16.00,0.00 l0.00,64.00 L 192.00,160.00 l0.00,224.00 L 64.00,384.00 L 64.00,96.00 l 16.00,0.00 L 80.00,64.00 L 48.00,64.00 c-8.801,0.00-16.00,7.20-16.00,16.00l0.00,320.00 c0.00,8.80, 7.199,16.00, 16.00,16.00l 144.00,0.00 l0.00,96.00 l 224.00,0.00 l 96.00-96.00L 512.00,160.00 L 416.00,160.00 z M 416.00,466.745L 416.00,416.00 l 50.745,0.00 L 416.00,466.745z M 480.00,384.00l-96.00,0.00 l0.00,96.00 L 224.00,480.00 L 224.00,192.00 l 256.00,0.00 L 480.00,384.00 z" ></path></svg>