<?xml version="1.0" encoding="utf-8"?>  <!DOCTYPE svg PUBLIC "-//W3C//DTD SVG 1.1//EN" "http://www.w3.org/Graphics/SVG/1.1/DTD/svg11.dtd"> <svg width="512" height="512" viewBox="0 0 512 512" xmlns="http://www.w3.org/2000/svg" xmlns:xlink="http://www.w3.org/1999/xlink" fill="#000000"><path d="M 368.01,317.98C 378.193,299.615, 384.00,278.487, 384.00,256.00c0.00-51.657-30.604-96.162-74.667-116.386 C 325.695,124.965, 336.00,103.689, 336.00,80.00c0.00-44.183-35.817-80.00-80.00-80.00c-44.183,0.00-80.00,35.817-80.00,80.00c0.00,23.69, 10.305,44.965, 26.667,59.614 C 158.604,159.838, 128.00,204.343, 128.00,256.00c0.00,22.487, 5.806,43.615, 15.99,61.98C 77.044,356.713, 32.00,429.094, 32.00,512.00l 448.00,0.00 C 480.00,429.094, 434.956,356.713, 368.01,317.98z" ></path></svg>