<?xml version="1.0" encoding="utf-8"?>  <!DOCTYPE svg PUBLIC "-//W3C//DTD SVG 1.1//EN" "http://www.w3.org/Graphics/SVG/1.1/DTD/svg11.dtd"> <svg width="512" height="512" viewBox="0 0 512 512" xmlns="http://www.w3.org/2000/svg" xmlns:xlink="http://www.w3.org/1999/xlink" fill="#000000"><path d="M 490.594,80.054C 418.778,69.729, 339.428,64.00, 256.001,64.00c-83.43,0.00-162.778,5.729-234.597,16.054 C 7.639,133.917,0.00,193.429,0.00,256.00c0.00,62.57, 7.639,122.083, 21.404,175.945C 93.223,442.271, 172.572,448.00, 256.001,448.00 c 83.427,0.00, 162.776-5.729, 234.593-16.055C 504.36,378.083, 512.00,318.57, 512.00,256.00C 512.00,193.429, 504.36,133.917, 490.594,80.054z M 192.001,352.00L 192.001,160.00 l 160.00,96.00L 192.001,352.00z" ></path></svg>