<?xml version="1.0" encoding="utf-8"?>  <!DOCTYPE svg PUBLIC "-//W3C//DTD SVG 1.1//EN" "http://www.w3.org/Graphics/SVG/1.1/DTD/svg11.dtd"> <svg width="512" height="512" viewBox="0 0 512 512" xmlns="http://www.w3.org/2000/svg" xmlns:xlink="http://www.w3.org/1999/xlink" fill="#000000"><path d="M 160.00,32.00 L 32.00,32.00 L 32.00,160.00 L 160.00,160.00 L 160.00,32.00 Z M 192.00,0.00 L 192.00,0.00 L 192.00,192.00 L 0.00,192.00 L 0.00,0.00 L 192.00,0.00 ZM 64.00,64.00L 128.00,64.00L 128.00,128.00L 64.00,128.00zM 480.00,32.00 L 352.00,32.00 L 352.00,160.00 L 480.00,160.00 L 480.00,32.00 Z M 512.00,0.00 L 512.00,0.00 L 512.00,192.00 L 320.00,192.00 L 320.00,0.00 L 512.00,0.00 ZM 384.00,64.00L 448.00,64.00L 448.00,128.00L 384.00,128.00zM 160.00,352.00 L 32.00,352.00 L 32.00,480.00 L 160.00,480.00 L 160.00,352.00 Z M 192.00,320.00 L 192.00,320.00 L 192.00,512.00 L 0.00,512.00 L 0.00,320.00 L 192.00,320.00 ZM 64.00,384.00L 128.00,384.00L 128.00,448.00L 64.00,448.00zM 224.00,0.00L 256.00,0.00L 256.00,32.00L 224.00,32.00zM 256.00,32.00L 288.00,32.00L 288.00,64.00L 256.00,64.00zM 224.00,64.00L 256.00,64.00L 256.00,96.00L 224.00,96.00zM 256.00,96.00L 288.00,96.00L 288.00,128.00L 256.00,128.00zM 224.00,128.00L 256.00,128.00L 256.00,160.00L 224.00,160.00zM 256.00,160.00L 288.00,160.00L 288.00,192.00L 256.00,192.00zM 224.00,192.00L 256.00,192.00L 256.00,224.00L 224.00,224.00zM 224.00,256.00L 256.00,256.00L 256.00,288.00L 224.00,288.00zM 256.00,288.00L 288.00,288.00L 288.00,320.00L 256.00,320.00zM 224.00,320.00L 256.00,320.00L 256.00,352.00L 224.00,352.00zM 256.00,352.00L 288.00,352.00L 288.00,384.00L 256.00,384.00zM 224.00,384.00L 256.00,384.00L 256.00,416.00L 224.00,416.00zM 256.00,416.00L 288.00,416.00L 288.00,448.00L 256.00,448.00zM 224.00,448.00L 256.00,448.00L 256.00,480.00L 224.00,480.00zM 256.00,480.00L 288.00,480.00L 288.00,512.00L 256.00,512.00zM 480.00,256.00L 512.00,256.00L 512.00,288.00L 480.00,288.00zM 32.00,256.00L 64.00,256.00L 64.00,288.00L 32.00,288.00zM 64.00,224.00L 96.00,224.00L 96.00,256.00L 64.00,256.00zM0.00,224.00L 32.00,224.00L 32.00,256.00L0.00,256.00zM 128.00,224.00L 160.00,224.00L 160.00,256.00L 128.00,256.00zM 160.00,256.00L 192.00,256.00L 192.00,288.00L 160.00,288.00zM 192.00,224.00L 224.00,224.00L 224.00,256.00L 192.00,256.00zM 288.00,256.00L 320.00,256.00L 320.00,288.00L 288.00,288.00zM 320.00,224.00L 352.00,224.00L 352.00,256.00L 320.00,256.00zM 352.00,256.00L 384.00,256.00L 384.00,288.00L 352.00,288.00zM 384.00,224.00L 416.00,224.00L 416.00,256.00L 384.00,256.00zM 416.00,256.00L 448.00,256.00L 448.00,288.00L 416.00,288.00zM 448.00,224.00L 480.00,224.00L 480.00,256.00L 448.00,256.00zM 480.00,320.00L 512.00,320.00L 512.00,352.00L 480.00,352.00zM 288.00,320.00L 320.00,320.00L 320.00,352.00L 288.00,352.00zM 320.00,288.00L 352.00,288.00L 352.00,320.00L 320.00,320.00zM 352.00,320.00L 384.00,320.00L 384.00,352.00L 352.00,352.00zM 416.00,320.00L 448.00,320.00L 448.00,352.00L 416.00,352.00zM 448.00,288.00L 480.00,288.00L 480.00,320.00L 448.00,320.00zM 480.00,384.00L 512.00,384.00L 512.00,416.00L 480.00,416.00zM 288.00,384.00L 320.00,384.00L 320.00,416.00L 288.00,416.00zM 320.00,352.00L 352.00,352.00L 352.00,384.00L 320.00,384.00zM 384.00,352.00L 416.00,352.00L 416.00,384.00L 384.00,384.00zM 416.00,384.00L 448.00,384.00L 448.00,416.00L 416.00,416.00zM 448.00,352.00L 480.00,352.00L 480.00,384.00L 448.00,384.00zM 480.00,448.00L 512.00,448.00L 512.00,480.00L 480.00,480.00zM 320.00,416.00L 352.00,416.00L 352.00,448.00L 320.00,448.00zM 352.00,448.00L 384.00,448.00L 384.00,480.00L 352.00,480.00zM 384.00,416.00L 416.00,416.00L 416.00,448.00L 384.00,448.00zM 416.00,448.00L 448.00,448.00L 448.00,480.00L 416.00,480.00zM 320.00,480.00L 352.00,480.00L 352.00,512.00L 320.00,512.00zM 384.00,480.00L 416.00,480.00L 416.00,512.00L 384.00,512.00zM 448.00,480.00L 480.00,480.00L 480.00,512.00L 448.00,512.00z" ></path></svg>