<?xml version="1.0" encoding="utf-8"?>  <!DOCTYPE svg PUBLIC "-//W3C//DTD SVG 1.1//EN" "http://www.w3.org/Graphics/SVG/1.1/DTD/svg11.dtd"> <svg width="512" height="512" viewBox="0 0 512 512" xmlns="http://www.w3.org/2000/svg" xmlns:xlink="http://www.w3.org/1999/xlink" fill="#000000"><path d="M 112.50,224.00 C 174.356,224.00 224.50,274.145 224.50,336.00 C 224.50,397.856 174.356,448.00 112.50,448.00 C 50.644,448.00 0.50,397.856 0.50,336.00 L 0.00,320.00 C 0.00,196.288 100.288,96.00 224.00,96.00 L 224.00,160.00 C 181.263,160.00 141.083,176.643 110.863,206.863 C 105.046,212.681 99.737,218.871 94.948,225.373 C 100.667,224.473 106.528,224.00 112.50,224.00 ZM 400.50,224.00 C 462.355,224.00 512.50,274.145 512.50,336.00 C 512.50,397.856 462.355,448.00 400.50,448.00 C 338.645,448.00 288.50,397.856 288.50,336.00 L 288.00,320.00 C 288.00,196.288 388.288,96.00 512.00,96.00 L 512.00,160.00 C 469.263,160.00 429.083,176.643 398.863,206.863 C 393.045,212.681 387.736,218.871 382.947,225.373 C 388.667,224.473 394.527,224.00 400.50,224.00 Z" ></path></svg>