<?xml version="1.0" encoding="utf-8"?>  <!DOCTYPE svg PUBLIC "-//W3C//DTD SVG 1.1//EN" "http://www.w3.org/Graphics/SVG/1.1/DTD/svg11.dtd"> <svg width="512" height="512" viewBox="0 0 512 512" xmlns="http://www.w3.org/2000/svg" xmlns:xlink="http://www.w3.org/1999/xlink" fill="#000000"><path d="M 512.00,128.00L 384.00,0.00l0.00,96.00 c-65.386,0.00-115.376,15.604-152.825,47.704c-2.625,2.25-5.142,4.55-7.581,6.887 c 13.76,19.082, 24.358,38.758, 33.886,57.545C 281.641,178.935, 316.507,160.00, 384.00,160.00l0.00,96.00 l0.00,0.00 l0.00,96.00 c-108.223,0.00-132.563-48.68-163.378-110.311 c-17.153-34.306-34.89-69.78-67.796-97.985C 115.376,111.604, 65.386,96.00,0.00,96.00l0.00,64.00 c 108.223,0.00, 132.563,48.68, 163.378,110.311 c 17.153,34.306, 34.89,69.78, 67.796,97.985C 268.624,400.396, 318.615,416.00, 384.00,416.00l0.00,96.00 l 128.00-128.00L 384.00,256.00L 512.00,128.00zM0.00,352.00l0.00,64.00 c 65.386,0.00, 115.375-15.604, 152.825-47.704c 2.625-2.249, 5.142-4.55, 7.581-6.888 c-13.76-19.081-24.359-38.758-33.886-57.545C 102.36,333.064, 67.494,352.00,0.00,352.00z" ></path></svg>