<?xml version="1.0" encoding="utf-8"?>  <!DOCTYPE svg PUBLIC "-//W3C//DTD SVG 1.1//EN" "http://www.w3.org/Graphics/SVG/1.1/DTD/svg11.dtd"> <svg width="512" height="512" viewBox="0 0 512 512" xmlns="http://www.w3.org/2000/svg" xmlns:xlink="http://www.w3.org/1999/xlink" fill="#000000"><path d="M 445.98,257.102c-9.043,0.00-17.674,1.76-25.532,4.928C 415.195,204.851, 365.303,160.00, 304.448,160.00 c-14.893,0.00-29.341,2.815-42.159,7.582c-4.98,1.851-6.289,3.76-6.289,7.458l0.00,201.357 c0.00,3.883, 3.12,7.117, 7.062,7.498 C 263.23,383.912, 444.83,384.00, 446.007,384.00C 482.459,384.00, 512.00,355.592, 512.00,320.553S 482.433,257.102, 445.98,257.102zM 200.00,384.00L 216.00,384.00L 224.00,271.89L 216.00,160.00L 200.00,160.00L 192.00,271.89 zM 152.00,384.00L 136.00,384.00L 128.00,302.625L 136.00,224.00L 152.00,224.00L 160.00,304.00 zM 72.00,384.00L 88.00,384.00L 96.00,320.00L 88.00,256.00L 72.00,256.00L 64.00,320.00 zM 8.00,352.00L 24.00,352.00L 32.00,320.00L 24.00,288.00L 8.00,288.00L0.00,320.00 z" ></path></svg>