<?xml version="1.0" encoding="utf-8"?>  <!DOCTYPE svg PUBLIC "-//W3C//DTD SVG 1.1//EN" "http://www.w3.org/Graphics/SVG/1.1/DTD/svg11.dtd"> <svg width="512" height="512" viewBox="0 0 512 512" xmlns="http://www.w3.org/2000/svg" xmlns:xlink="http://www.w3.org/1999/xlink" fill="#000000"><path d="M 64.00,128.00l 64.00,0.00 l0.00,96.00 l 32.00,0.00 L 160.00,32.00 c0.00-17.60-14.40-32.00-32.00-32.00L 64.00,0.00 C 46.40,0.00, 32.00,14.40, 32.00,32.00l0.00,192.00 l 32.00,0.00 L 64.00,128.00 z M 64.00,32.00l 64.00,0.00 l0.00,64.00 L 64.00,96.00 L 64.00,32.00 z M 480.00,32.00L 480.00,0.00 l-96.00,0.00 c-17.601,0.00-32.00,14.40-32.00,32.00l0.00,160.00 c0.00,17.60, 14.399,32.00, 32.00,32.00l 96.00,0.00 l0.00-32.00 l-96.00,0.00 L 384.00,32.00 L 480.00,32.00 z M 320.00,80.00L 320.00,32.00 c0.00-17.60-14.40-32.00-32.00-32.00l-96.00,0.00 l0.00,224.00 l 96.00,0.00 c 17.60,0.00, 32.00-14.40, 32.00-32.00l0.00-48.00 c0.00-17.60-4.40-32.00-22.00-32.00C 315.60,112.00, 320.00,97.60, 320.00,80.00z M 288.00,192.00l-64.00,0.00 l0.00-64.00 l 64.00,0.00 L 288.00,192.00 z M 288.00,96.00l-64.00,0.00 L 224.00,32.00 l 64.00,0.00 L 288.00,96.00 zM 416.00,288.00 L 208.00,512.00 L 96.00,368.00 L 137.00,333.00 L 208.00,407.00 L 384.00,256.00 Z" ></path></svg>