<?xml version="1.0" encoding="utf-8"?>  <!DOCTYPE svg PUBLIC "-//W3C//DTD SVG 1.1//EN" "http://www.w3.org/Graphics/SVG/1.1/DTD/svg11.dtd"> <svg width="512" height="512" viewBox="0 0 512 512" xmlns="http://www.w3.org/2000/svg" xmlns:xlink="http://www.w3.org/1999/xlink" fill="#000000"><path d="M 256.00,0.00 C 116.626,0.00 3.271,111.381 0.076,249.987 C 3.036,129.055 94.992,32.00 208.00,32.00 C 322.875,32.00 416.00,132.288 416.00,256.00 C 416.00,282.51 437.49,304.00 464.00,304.00 C 490.51,304.00 512.00,282.51 512.00,256.00 C 512.00,114.615 397.385,0.00 256.00,0.00 ZM 256.00,512.00 C 395.374,512.00 508.729,400.619 511.924,262.013 C 508.964,382.945 417.008,480.00 304.00,480.00 C 189.125,480.00 96.00,379.712 96.00,256.00 C 96.00,229.49 74.51,208.00 48.00,208.00 C 21.49,208.00 0.00,229.49 0.00,256.00 C 0.00,397.385 114.615,512.00 256.00,512.00 Z" ></path></svg>