<?xml version="1.0" encoding="utf-8"?>  <!DOCTYPE svg PUBLIC "-//W3C//DTD SVG 1.1//EN" "http://www.w3.org/Graphics/SVG/1.1/DTD/svg11.dtd"> <svg width="512" height="512" viewBox="0 0 512 512" xmlns="http://www.w3.org/2000/svg" xmlns:xlink="http://www.w3.org/1999/xlink" fill="#000000"><path d="M 256.00,0.00C 114.615,0.00,0.00,114.615,0.00,256.00s 114.615,256.00, 256.00,256.00s 256.00-114.615, 256.00-256.00S 397.385,0.00, 256.00,0.00z M 256.00,128.00 c 70.692,0.00, 128.00,57.308, 128.00,128.00s-57.308,128.00-128.00,128.00s-128.00-57.308-128.00-128.00S 185.308,128.00, 256.00,128.00z M 408.735,408.735 C 367.938,449.532, 313.695,472.00, 256.00,472.00c-57.696,0.00-111.938-22.468-152.735-63.265C 62.468,367.938, 40.00,313.696, 40.00,256.00 c0.00-57.695, 22.468-111.938, 63.265-152.735l 33.941,33.941c0.00,0.00,0.00,0.00,0.00,0.00c-65.503,65.503-65.503,172.085,0.00,237.588 C 168.937,406.525, 211.125,424.00, 256.00,424.00c 44.874,0.00, 87.062-17.475, 118.794-49.206c 65.503-65.503, 65.503-172.084,0.00-237.588l 33.941-33.941 C 449.532,144.062, 472.00,198.305, 472.00,256.00C 472.00,313.696, 449.532,367.938, 408.735,408.735z" ></path></svg>