<?xml version="1.0" encoding="utf-8"?>  <!DOCTYPE svg PUBLIC "-//W3C//DTD SVG 1.1//EN" "http://www.w3.org/Graphics/SVG/1.1/DTD/svg11.dtd"> <svg width="512" height="512" viewBox="0 0 512 512" xmlns="http://www.w3.org/2000/svg" xmlns:xlink="http://www.w3.org/1999/xlink" fill="#000000"><path d="M 512.00,192.00 L 320.00,192.00 L 391.765,120.235 C 355.50,83.972 307.285,64.00 256.00,64.00 C 204.715,64.00 156.50,83.972 120.235,120.235 C 83.972,156.50 64.00,204.715 64.00,256.00 C 64.00,307.285 83.972,355.50 120.235,391.765 C 156.50,428.028 204.715,448.00 256.00,448.00 C 307.285,448.00 355.50,428.028 391.764,391.764 C 394.792,388.737 397.694,385.618 400.492,382.43 L 448.652,424.571 C 401.729,478.154 332.82,512.00 256.00,512.00 C 114.615,512.00 0.00,397.385 0.00,256.00 C 0.00,114.615 114.615,0.00 256.00,0.00 C 326.693,0.00 390.684,28.663 437.008,74.992 L 512.00,0.00 L 512.00,192.00 Z" ></path></svg>