<?xml version="1.0" encoding="utf-8"?>  <!DOCTYPE svg PUBLIC "-//W3C//DTD SVG 1.1//EN" "http://www.w3.org/Graphics/SVG/1.1/DTD/svg11.dtd"> <svg width="512" height="512" viewBox="0 0 512 512" xmlns="http://www.w3.org/2000/svg" xmlns:xlink="http://www.w3.org/1999/xlink" fill="#000000"><path d="M 192.00,64.00A64.00,64.00 12600.00 1,0 320.00,64A64.00,64.00 12600.00 1,0 192.00,64zM 327.765,120.235A64.00,64.00 12600.00 1,0 455.765,120.23500000000001A64.00,64.00 12600.00 1,0 327.765,120.23500000000001zM 416.00,256.00A32.00,32.00 12600.00 1,0 480.00,256A32.00,32.00 12600.00 1,0 416.00,256zM 359.765,391.765A32.00,32.00 12600.00 1,0 423.765,391.765A32.00,32.00 12600.00 1,0 359.765,391.765zM 224.001,448.00A32.00,32.00 12600.00 1,0 288.001,448A32.00,32.00 12600.00 1,0 224.001,448zM 88.236,391.765A32.00,32.00 12600.00 1,0 152.236,391.765A32.00,32.00 12600.00 1,0 88.236,391.765zM 72.236,120.235A48.00,48.00 12600.00 1,0 168.236,120.23500000000001A48.00,48.00 12600.00 1,0 72.236,120.23500000000001zM 28.00,256.00A36.00,36.00 12600.00 1,0 100.00,256A36.00,36.00 12600.00 1,0 28.00,256z" ></path></svg>