<?xml version="1.0" encoding="utf-8"?>  <!DOCTYPE svg PUBLIC "-//W3C//DTD SVG 1.1//EN" "http://www.w3.org/Graphics/SVG/1.1/DTD/svg11.dtd"> <svg width="512" height="512" viewBox="0 0 512 512" xmlns="http://www.w3.org/2000/svg" xmlns:xlink="http://www.w3.org/1999/xlink" fill="#000000"><path d="M 64.00,448.00 L 512.00,448.00 L 512.00,512.00 L 0.00,512.00 L 0.00,0.00 L 64.00,0.00 ZM 144.00,416.00 C 117.49,416.00 96.00,394.51 96.00,368.00 C 96.00,341.49 117.49,320.00 144.00,320.00 C 145.414,320.00 146.811,320.074 148.194,320.193 L 199.79,234.20 C 194.87,226.665 192.00,217.669 192.00,207.999 C 192.00,181.489 213.49,159.999 240.00,159.999 C 266.51,159.999 288.00,181.489 288.00,207.999 C 288.00,217.67 285.13,226.665 280.21,234.20 L 331.806,320.193 C 333.189,320.074 334.586,320.00 336.00,320.00 C 337.068,320.00 338.124,320.047 339.175,320.115 L 424.353,171.054 C 419.085,163.35 416.00,154.036 416.00,143.999 C 416.00,117.489 437.49,95.999 464.00,95.999 C 490.51,95.999 512.00,117.489 512.00,143.999 C 512.00,170.509 490.51,191.999 464.00,191.999 C 462.93,191.999 461.876,191.952 460.825,191.883 L 375.647,340.945 C 380.915,348.648 384.00,357.963 384.00,368.00 C 384.00,394.51 362.51,416.00 336.00,416.00 C 309.49,416.00 288.00,394.51 288.00,368.00 C 288.00,358.33 290.87,349.334 295.789,341.799 L 244.194,255.807 C 242.811,255.926 241.414,256.00 240.00,256.00 C 238.586,256.00 237.189,255.927 235.806,255.807 L 184.21,341.80 C 189.13,349.334 192.00,358.33 192.00,368.00 C 192.00,394.51 170.51,416.00 144.00,416.00 Z" ></path></svg>