<?xml version="1.0" encoding="utf-8"?>  <!DOCTYPE svg PUBLIC "-//W3C//DTD SVG 1.1//EN" "http://www.w3.org/Graphics/SVG/1.1/DTD/svg11.dtd"> <svg width="512" height="512" viewBox="0 0 512 512" xmlns="http://www.w3.org/2000/svg" xmlns:xlink="http://www.w3.org/1999/xlink" fill="#000000"><path d="M0.00,96.00l0.00,352.00 l 512.00,0.00 L 512.00,96.00 L0.00,96.00 z M 192.00,320.00l0.00-64.00 l 128.00,0.00 l0.00,64.00 L 192.00,320.00 z M 320.00,352.00l0.00,64.00 L 192.00,416.00 l0.00-64.00 L 320.00,352.00 z M 320.00,160.00l0.00,64.00 L 192.00,224.00 l0.00-64.00 L 320.00,160.00 z M 160.00,160.00l0.00,64.00 L 32.00,224.00 l0.00-64.00 L 160.00,160.00 z M 32.00,256.00l 128.00,0.00 l0.00,64.00 L 32.00,320.00 L 32.00,256.00 z M 352.00,256.00l 128.00,0.00 l0.00,64.00 L 352.00,320.00 L 352.00,256.00 z M 352.00,224.00l0.00-64.00 l 128.00,0.00 l0.00,64.00 L 352.00,224.00 z M 32.00,352.00l 128.00,0.00 l0.00,64.00 L 32.00,416.00 L 32.00,352.00 z M 352.00,416.00l0.00-64.00 l 128.00,0.00 l0.00,64.00 L 352.00,416.00 z" ></path></svg>