<?xml version="1.0" encoding="utf-8"?>  <!DOCTYPE svg PUBLIC "-//W3C//DTD SVG 1.1//EN" "http://www.w3.org/Graphics/SVG/1.1/DTD/svg11.dtd"> <svg width="544" height="512" viewBox="0 0 544 512" xmlns="http://www.w3.org/2000/svg" xmlns:xlink="http://www.w3.org/1999/xlink" fill="#000000"><path d="M 496.00,32.00L 384.00,32.00 c-26.40,0.00-63.273,15.273-81.941,33.941L 113.941,254.059c-18.667,18.667-18.667,49.214,0.00,67.882l 140.118,140.117 c 18.667,18.668, 49.214,18.668, 67.882,0.00l 188.117-188.117C 528.727,255.273, 544.00,218.40, 544.00,192.00L 544.00,80.00 C 544.00,53.60, 522.40,32.00, 496.00,32.00z M 432.00,192.00 c-26.51,0.00-48.00-21.49-48.00-48.00s 21.49-48.00, 48.00-48.00s 48.00,21.49, 48.00,48.00S 458.51,192.00, 432.00,192.00zM 43.313,299.313 L 214.502,470.502 C 196.37,480.082 173.271,477.271 158.059,462.058 L 17.941,321.941 C -0.726,303.273 -0.726,272.726 17.941,254.059 L 206.059,65.941 C 224.727,47.273 261.60,32.00 288.00,32.00 L 43.313,276.686 C 37.091,282.909 37.091,293.09 43.313,299.313 Z" ></path></svg>