<?xml version="1.0" encoding="utf-8"?>  <!DOCTYPE svg PUBLIC "-//W3C//DTD SVG 1.1//EN" "http://www.w3.org/Graphics/SVG/1.1/DTD/svg11.dtd"> <svg width="512" height="512" viewBox="0 0 512 512" xmlns="http://www.w3.org/2000/svg" xmlns:xlink="http://www.w3.org/1999/xlink" fill="#000000"><path d="M 512.00,224.00l-50.462,0.00 C 447.718,134.88, 377.12,64.282, 288.00,50.462L 288.00,0.00 l-64.00,0.00 l0.00,50.462 C 134.88,64.282, 64.282,134.88, 50.462,224.00L0.00,224.00 l0.00,64.00 l 50.462,0.00 C 64.282,377.12, 134.88,447.718, 224.00,461.538L 224.00,512.00 l 64.00,0.00 l0.00-50.462 C 377.12,447.718, 447.718,377.12, 461.538,288.00L 512.00,288.00 L 512.00,224.00 z M 396.411,224.00 L 346.53,224.00 c-9.642-27.275-31.255-48.889-58.53-58.53l0.00-49.881 C 341.757,127.834, 384.166,170.244, 396.411,224.00z M 256.00,288.00 c-17.673,0.00-32.00-14.327-32.00-32.00c0.00-17.673, 14.327-32.00, 32.00-32.00c 17.673,0.00, 32.00,14.327, 32.00,32.00C 288.00,273.673, 273.673,288.00, 256.00,288.00z M 224.00,115.589 l0.00,49.881 c-27.275,9.641-48.889,31.255-58.53,58.53l-49.881,0.00 C 127.834,170.244, 170.244,127.834, 224.00,115.589z M 115.589,288.00l 49.881,0.00 c 9.641,27.275, 31.255,48.889, 58.53,58.53l0.00,49.881 C 170.244,384.166, 127.834,341.757, 115.589,288.00z M 288.00,396.411L 288.00,346.53 c 27.275-9.642, 48.889-31.255, 58.53-58.53l 49.881,0.00 C 384.166,341.757, 341.757,384.166, 288.00,396.411z" ></path></svg>