<?xml version="1.0" encoding="utf-8"?>  <!DOCTYPE svg PUBLIC "-//W3C//DTD SVG 1.1//EN" "http://www.w3.org/Graphics/SVG/1.1/DTD/svg11.dtd"> <svg width="512" height="512" viewBox="0 0 512 512" xmlns="http://www.w3.org/2000/svg" xmlns:xlink="http://www.w3.org/1999/xlink" fill="#000000"><path d="M 512.00,288.00l-64.00-128.00l-96.00,0.00 L 352.00,96.00 c0.00-17.60-14.40-32.00-32.00-32.00L 32.00,64.00 C 14.40,64.00,0.00,78.40,0.00,96.00l0.00,256.00 l 32.00,32.00l 40.583,0.00 C 67.134,393.416, 64.00,404.339, 64.00,416.00 c0.00,35.346, 28.654,64.00, 64.00,64.00s 64.00-28.654, 64.00-64.00c0.00-11.661-3.134-22.584-8.583-32.00l 177.167,0.00 c-5.449,9.416-8.584,20.339-8.584,32.00 c0.00,35.346, 28.654,64.00, 64.00,64.00s 64.00-28.654, 64.00-64.00c0.00-11.661-3.135-22.584-8.584-32.00L 512.00,384.00 L 512.00,288.00 z M 352.00,288.00l0.00-80.00 l 66.334,0.00 l 40.00,80.00L 352.00,288.00 z" ></path></svg>