<?xml version="1.0" encoding="utf-8"?>  <!DOCTYPE svg PUBLIC "-//W3C//DTD SVG 1.1//EN" "http://www.w3.org/Graphics/SVG/1.1/DTD/svg11.dtd"> <svg width="512" height="512" viewBox="0 0 512 512" xmlns="http://www.w3.org/2000/svg" xmlns:xlink="http://www.w3.org/1999/xlink" fill="#000000"><path d="M 490.594,144.054c-44.404-6.384-91.691-11.008-141.038-13.61L 432.00,48.00l-32.00-32.00L 287.721,128.278 C 277.218,128.094, 266.643,128.00, 256.00,128.00l0.00,0.00L 128.00,0.00L 96.00,32.00l 97.098,97.098c-60.461,2.121-118.169,7.262-171.693,14.956 C 7.639,197.917,0.00,257.43,0.00,320.00s 7.639,122.083, 21.402,175.945C 93.223,506.271, 172.572,512.00, 256.00,512.00 c 83.428,0.00, 162.775-5.729, 234.594-16.055C 504.361,442.083, 512.00,382.57, 512.00,320.00S 504.361,197.917, 490.594,144.054z M 431.946,437.297 C 378.081,444.18, 318.571,448.00, 256.00,448.00c-62.571,0.00-122.083-3.82-175.946-10.703C 69.73,401.389, 64.00,361.714, 64.00,320.00 c0.00-41.715, 5.729-81.39, 16.054-117.298C 133.917,195.819, 193.429,192.00, 256.00,192.00c 62.568,0.00, 122.081,3.819, 175.943,10.702 C 442.271,238.61, 448.00,278.285, 448.00,320.00C 448.00,361.714, 442.271,401.389, 431.946,437.297z" ></path></svg>