<?xml version="1.0" encoding="utf-8"?>  <!DOCTYPE svg PUBLIC "-//W3C//DTD SVG 1.1//EN" "http://www.w3.org/Graphics/SVG/1.1/DTD/svg11.dtd"> <svg width="512" height="512" viewBox="0 0 512 512" xmlns="http://www.w3.org/2000/svg" xmlns:xlink="http://www.w3.org/1999/xlink" fill="#000000"><path d="M 352.00,32.00 L 416.00,32.00 L 416.00,240.00 C 416.00,319.529 344.366,384.00 256.00,384.00 C 167.635,384.00 96.00,319.529 96.00,240.00 L 96.00,32.00 L 160.00,32.00 L 160.00,240.00 C 160.00,260.083 169.119,279.352 185.677,294.253 C 204.125,310.855 229.10,320.00 256.00,320.00 C 282.90,320.00 307.875,310.855 326.323,294.253 C 342.881,279.352 352.00,260.083 352.00,240.00 L 352.00,32.00 ZM 96.00,416.00L 416.00,416.00L 416.00,480.00L 96.00,480.00z" ></path></svg>