<?xml version="1.0" encoding="utf-8"?>  <!DOCTYPE svg PUBLIC "-//W3C//DTD SVG 1.1//EN" "http://www.w3.org/Graphics/SVG/1.1/DTD/svg11.dtd"> <svg width="512" height="512" viewBox="0 0 512 512" xmlns="http://www.w3.org/2000/svg" xmlns:xlink="http://www.w3.org/1999/xlink" fill="#000000"><path d="M 214.082,31.959 C 220.07,31.959 224.00,37.898 224.001,49.00 L 224.001,463.00 C 224.001,474.103 220.073,480.041 214.083,480.041 C 210.281,480.041 205.649,477.647 200.666,472.665 L 80.00,352.00 L 0.00,352.00 L 0.00,160.00 L 80.00,160.00 L 200.666,39.334 C 205.649,34.351 210.28,31.959 214.082,31.959 ZM 512.00,288.00 L 416.00,288.00 L 416.00,384.00 L 352.00,384.00 L 352.00,288.00 L 256.00,288.00 L 256.00,224.00 L 352.00,224.00 L 352.00,128.00 L 416.00,128.00 L 416.00,224.00 L 512.00,224.00 Z" ></path></svg>