<?xml version="1.0" encoding="utf-8"?>  <!DOCTYPE svg PUBLIC "-//W3C//DTD SVG 1.1//EN" "http://www.w3.org/Graphics/SVG/1.1/DTD/svg11.dtd"> <svg width="512" height="512" viewBox="0 0 512 512" xmlns="http://www.w3.org/2000/svg" xmlns:xlink="http://www.w3.org/1999/xlink" fill="#000000"><path d="M 200.666,39.334 C 213.50,26.50 224.00,30.85 224.00,49.00 L 224.00,463.00 C 224.00,481.15 213.50,485.499 200.666,472.665 L 80.00,352.00 L 0.00,352.00 L 0.00,160.00 L 80.00,160.00 L 200.666,39.334 ZM 480.00,309.574 L 480.00,352.00 L 437.574,352.00 L 384.00,298.426 L 330.426,352.00 L 288.00,352.00 L 288.00,309.574 L 341.574,256.00 L 288.00,202.426 L 288.00,160.00 L 330.426,160.00 L 384.00,213.574 L 437.574,160.00 L 480.00,160.00 L 480.00,202.426 L 426.426,256.00 Z" ></path></svg>