<?xml version="1.0" encoding="utf-8"?>  <!DOCTYPE svg PUBLIC "-//W3C//DTD SVG 1.1//EN" "http://www.w3.org/Graphics/SVG/1.1/DTD/svg11.dtd"> <svg width="544" height="512" viewBox="0 0 544 512" xmlns="http://www.w3.org/2000/svg" xmlns:xlink="http://www.w3.org/1999/xlink" fill="#000000"><path d="M 445.02,461.02c-6.143,0.00-12.284-2.343-16.971-7.029c-9.372-9.373-9.372-24.568,0.00-33.941 C 471.868,376.229, 496.001,317.97, 496.001,256.00c0.00-61.969-24.133-120.229-67.952-164.049c-9.372-9.373-9.372-24.569,0.00-33.941 c 9.372-9.372, 24.569-9.372, 33.941,0.00c 52.885,52.886, 82.011,123.20, 82.011,197.99c0.00,74.791-29.126,145.104-82.011,197.99 C 457.304,458.677, 451.162,461.02, 445.02,461.02zM 359.765,415.765c-6.143,0.00-12.284-2.343-16.971-7.029c-9.372-9.372-9.372-24.568,0.00-33.941 c 65.503-65.503, 65.503-172.085,0.00-237.588c-9.372-9.373-9.372-24.569,0.00-33.941c 9.372-9.371, 24.569-9.372, 33.941,0.00 C 417.532,144.062, 440.00,198.304, 440.00,256.00c0.00,57.695-22.468,111.938-63.265,152.735C 372.049,413.422, 365.907,415.765, 359.765,415.765zM 274.51,370.51c-6.143,0.00-12.284-2.343-16.971-7.029c-9.373-9.373-9.373-24.568,0.00-33.941 c 40.55-40.55, 40.55-106.529,0.00-147.078c-9.373-9.373-9.373-24.569,0.00-33.941c 9.373-9.372, 24.568-9.372, 33.941,0.00 c 59.265,59.265, 59.265,155.696,0.00,214.961C 286.794,368.167, 280.652,370.51, 274.51,370.51zM 200.666,39.334 C 213.50,26.50 224.00,30.85 224.00,49.00 L 224.00,463.00 C 224.00,481.15 213.50,485.499 200.666,472.665 L 80.00,352.00 L 0.00,352.00 L 0.00,160.00 L 80.00,160.00 L 200.666,39.334 Z" ></path></svg>