<?xml version="1.0" encoding="utf-8"?>  <!DOCTYPE svg PUBLIC "-//W3C//DTD SVG 1.1//EN" "http://www.w3.org/Graphics/SVG/1.1/DTD/svg11.dtd"> <svg width="512" height="512" viewBox="0 0 512 512" xmlns="http://www.w3.org/2000/svg" xmlns:xlink="http://www.w3.org/1999/xlink" fill="#000000"><path d="M 128.00,96.00L 64.00,32.00L 32.00,32.00L 32.00,64.00L 96.00,128.00 zM 160.00,0.00L 192.00,0.00L 192.00,64.00L 160.00,64.00zM 288.00,160.00L 352.00,160.00L 352.00,192.00L 288.00,192.00zM 320.00,64.00L 320.00,32.00L 288.00,32.00L 224.00,96.00L 256.00,128.00 zM0.00,160.00L 64.00,160.00L 64.00,192.00L0.00,192.00zM 160.00,288.00L 192.00,288.00L 192.00,352.00L 160.00,352.00zM 32.00,288.00L 32.00,320.00L 64.00,320.00L 128.00,256.00L 96.00,224.00 zM 505.00,441.00L 186.941,122.941c-9.334-9.334-24.607-9.334-33.941,0.00L 122.941,153.00c-9.334,9.334-9.334,24.607,0.00,33.941L 441.00,505.00 c 9.334,9.334, 24.607,9.334, 33.941,0.00L 505.00,474.941C 514.334,465.607, 514.334,450.334, 505.00,441.00z M 240.00,272.00l-96.00-96.00l 32.00-32.00l 96.00,96.00L 240.00,272.00z" ></path></svg>